<svg width="1173" height="250" viewBox="0 0 1173 250" fill="none" xmlns="http://www.w3.org/2000/svg">
<path d="M355.05 44H362.36V72.25C362.36 74.1 362.68 75.85 363.31 77.48C363.94 79.12 364.86 80.55 366.04 81.78C367.23 83.01 368.65 83.98 370.32 84.69C371.99 85.4 373.85 85.75 375.91 85.75C377.97 85.75 379.87 85.4 381.53 84.69C383.2 83.98 384.61 83.01 385.78 81.78C386.95 80.55 387.84 79.12 388.47 77.48C389.09 75.84 389.41 74.1 389.41 72.25V44H392.63V72.25C392.63 74.48 392.27 76.58 391.55 78.55C390.83 80.52 389.7 82.25 388.16 83.74C386.62 85.23 384.64 86.41 382.24 87.27C379.84 88.13 376.94 88.57 373.57 88.57C370.57 88.57 367.91 88.14 365.6 87.27C363.29 86.4 361.35 85.22 359.79 83.72C358.23 82.22 357.04 80.47 356.24 78.47C355.44 76.47 355.04 74.35 355.04 72.09V44H355.05Z" fill="white"/>
<path d="M402.8 44H406.89L435.42 75.81H435.7V44H438.92V88.56H437.23L406.32 53.15H406.07V87.53H402.79V44H402.8Z" fill="white"/>
<path d="M449.87 44H457.18V87.53H449.87V44Z" fill="white"/>
<path d="M502.74 44V46.81H486.99V87.53H479.68V46.81H463.9V44H502.74Z" fill="white"/>
<path d="M539.71 44.0002V46.8102H516.77V62.3702H532.11V65.1802H516.77V84.7102H539.71V87.5202H509.46V43.9902H539.71V44.0002Z" fill="white"/>
<path d="M547.84 44.0002H562.31C566.79 44.0002 570.64 44.4202 573.86 45.2502C577.08 46.0802 579.76 47.4202 581.91 49.2502C584.37 51.3302 586.22 53.7302 587.46 56.4502C588.7 59.1702 589.32 62.1402 589.32 65.3702C589.32 68.4302 588.76 71.3102 587.65 73.9902C586.53 76.6802 584.91 79.0302 582.77 81.0402C580.63 83.0502 578 84.6302 574.86 85.7902C571.72 86.9502 568.14 87.5202 564.09 87.5202H547.84V43.9902V44.0002ZM555.15 84.3402H562.9C565.36 84.3402 567.67 83.9302 569.84 83.1202C572.01 82.3102 573.9 81.1002 575.51 79.5102C577.12 77.9202 578.39 75.9502 579.32 73.6002C580.25 71.2602 580.71 68.5502 580.71 65.4902C580.71 62.8202 580.27 60.3702 579.4 58.1302C578.52 55.8902 577.3 53.9602 575.73 52.3502C574.16 50.7402 572.28 49.4702 570.11 48.5702C567.93 47.6602 565.55 47.2102 562.97 47.2102H555.16V84.3302L555.15 84.3402Z" fill="white"/>
<path d="M631.52 43L652.02 87.53H644.58L637.92 73H619.26L612.38 87.53H608.72L629.69 43H631.5H631.52ZM620.55 70.19H636.58L628.67 52.97L620.55 70.19Z" fill="white"/>
<path d="M657.65 44H672.71C675.33 44 677.63 44.28 679.6 44.84C681.57 45.4 683.21 46.19 684.52 47.2C685.83 48.21 686.82 49.41 687.49 50.79C688.16 52.18 688.49 53.69 688.49 55.34C688.49 56.69 688.23 57.96 687.72 59.14C687.21 60.32 686.49 61.38 685.55 62.33C684.61 63.28 683.49 64.1 682.17 64.8C680.86 65.5 679.41 66.03 677.83 66.41L693.67 87.53H685.2L670.08 67.06H664.96V87.53H657.65V44ZM664.96 64.88H669.18C670.83 64.88 672.34 64.66 673.73 64.22C675.11 63.78 676.32 63.16 677.34 62.36C678.36 61.56 679.16 60.58 679.73 59.44C680.3 58.29 680.59 57.01 680.59 55.6C680.59 54.31 680.36 53.12 679.9 52.02C679.44 50.93 678.81 49.99 677.99 49.21C677.17 48.43 676.21 47.82 675.08 47.38C673.95 46.94 672.73 46.72 671.39 46.72H664.95V64.88H664.96Z" fill="white"/>
<path d="M716.62 43L737.12 87.53H729.68L723.02 73H704.36L697.48 87.53H693.82L714.79 43H716.6H716.62ZM705.65 70.19H721.68L713.77 52.97L705.65 70.19Z" fill="white"/>
<path d="M742.74 44H760.27C762.58 44 764.71 44.26 766.65 44.78C768.59 45.3 770.25 46.03 771.63 46.97C773.01 47.91 774.09 49.03 774.86 50.35C775.63 51.66 776.02 53.11 776.02 54.69C776.02 55.88 775.9 56.94 775.64 57.88C775.38 58.82 774.96 59.69 774.36 60.49C773.76 61.29 772.94 62.05 771.92 62.77C770.9 63.49 769.62 64.21 768.08 64.94V65.06C769.62 65.31 771.02 65.73 772.28 66.33C773.54 66.92 774.61 67.68 775.5 68.6C776.38 69.52 777.07 70.57 777.55 71.77C778.03 72.97 778.27 74.3 778.27 75.75C778.27 77.4 777.91 78.94 777.19 80.37C776.47 81.8 775.45 83.06 774.13 84.12C772.81 85.18 771.21 86.02 769.33 86.62C767.45 87.22 765.36 87.53 763.05 87.53H742.74V44ZM750.05 63.59H759.36C760.82 63.59 762.12 63.38 763.27 62.97C764.42 62.55 765.38 61.98 766.16 61.24C766.94 60.5 767.54 59.63 767.94 58.63C768.34 57.63 768.55 56.54 768.55 55.35C768.55 54.08 768.31 52.92 767.83 51.88C767.35 50.84 766.6 49.95 765.58 49.21C764.56 48.47 763.27 47.9 761.7 47.51C760.14 47.11 758.26 46.92 756.08 46.92H750.05V63.61V63.59ZM750.05 84.34H757.96C760.08 84.34 761.93 84.14 763.49 83.73C765.05 83.32 766.34 82.76 767.37 82.03C768.39 81.3 769.15 80.42 769.64 79.39C770.13 78.36 770.37 77.23 770.37 76C770.37 74.62 770.15 73.34 769.71 72.16C769.27 70.98 768.55 69.95 767.55 69.08C766.55 68.22 765.25 67.53 763.64 67.03C762.04 66.53 760.07 66.28 757.73 66.28H750.04V84.34H750.05Z" fill="white"/>
<path d="M834.3 44.0002V46.8102H811.36V62.3702H826.7V65.1802H811.36V84.7102H834.3V87.5202H804.05V43.9902H834.3V44.0002Z" fill="white"/>
<path d="M842.43 44H849.9L866.84 77.41H867.18L883.8 44H891.14V87.53H883.8V51.87H883.55L865.71 87.53H864.21L846.15 52.12H845.65V87.53H842.43V44Z" fill="white"/>
<path d="M902.09 44H909.4V87.53H902.09V44Z" fill="white"/>
<path d="M920.34 44H935.4C938.02 44 940.32 44.28 942.29 44.84C944.26 45.4 945.9 46.19 947.21 47.2C948.52 48.21 949.51 49.41 950.18 50.79C950.85 52.18 951.18 53.69 951.18 55.34C951.18 56.69 950.92 57.96 950.41 59.14C949.9 60.32 949.18 61.38 948.24 62.33C947.3 63.28 946.18 64.1 944.86 64.8C943.55 65.5 942.1 66.03 940.52 66.41L956.36 87.53H947.89L932.77 67.06H927.65V87.53H920.34V44ZM927.65 64.88H931.87C933.52 64.88 935.03 64.66 936.42 64.22C937.8 63.78 939.01 63.16 940.03 62.36C941.05 61.56 941.85 60.58 942.42 59.44C942.99 58.29 943.28 57.01 943.28 55.6C943.28 54.31 943.05 53.12 942.59 52.02C942.13 50.93 941.5 49.99 940.68 49.21C939.86 48.43 938.9 47.82 937.77 47.38C936.64 46.94 935.42 46.72 934.08 46.72H927.64V64.88H927.65Z" fill="white"/>
<path d="M979.3 43L999.8 87.53H992.36L985.7 73H967.04L960.16 87.53H956.5L977.47 43H979.28H979.3ZM968.33 70.19H984.36L976.45 52.97L968.33 70.19Z" fill="white"/>
<path d="M1035.49 44V46.81H1019.74V87.53H1012.43V46.81H996.65V44H1035.49Z" fill="white"/>
<path d="M1072.46 44.0002V46.8102H1049.52V62.3702H1064.86V65.1802H1049.52V84.7102H1072.46V87.5202H1042.21V43.9902H1072.46V44.0002Z" fill="white"/>
<path d="M1092.49 85.7798C1093.57 85.7798 1094.64 85.6298 1095.69 85.3398C1096.74 85.0498 1097.68 84.6098 1098.5 84.0298C1099.32 83.4498 1099.98 82.7298 1100.48 81.8898C1100.98 81.0498 1101.23 80.0698 1101.23 78.9698C1101.23 77.6398 1100.89 76.4498 1100.2 75.4198C1099.51 74.3898 1098.61 73.4398 1097.5 72.5598C1096.38 71.6798 1095.11 70.8698 1093.67 70.1098C1092.23 69.3498 1090.77 68.5798 1089.28 67.8098C1087.79 67.0398 1086.33 66.2298 1084.89 65.3898C1083.45 64.5498 1082.18 63.6098 1081.06 62.5798C1079.94 61.5498 1079.04 60.3898 1078.36 59.1098C1077.68 57.8298 1077.33 56.3598 1077.33 54.6898C1077.33 53.0198 1077.64 51.4798 1078.27 50.0498C1078.89 48.6198 1079.81 47.3898 1081.02 46.3498C1082.23 45.3098 1083.71 44.4898 1085.47 43.8998C1087.23 43.3098 1089.26 43.0098 1091.55 43.0098C1095.67 43.0098 1098.93 43.8698 1101.32 45.5998C1103.7 47.3298 1105.43 49.8298 1106.49 53.0998L1102.74 54.8198C1102.3 53.4898 1101.74 52.2698 1101.07 51.1598C1100.39 50.0598 1099.58 49.1098 1098.63 48.3198C1097.68 47.5298 1096.59 46.9198 1095.36 46.4898C1094.13 46.0598 1092.74 45.8498 1091.2 45.8498C1089.82 45.8498 1088.62 46.0398 1087.59 46.4298C1086.56 46.8198 1085.7 47.3198 1085.03 47.9298C1084.35 48.5398 1083.84 49.2398 1083.5 50.0198C1083.16 50.7998 1082.98 51.5998 1082.98 52.4098C1082.98 53.5598 1083.33 54.5998 1084.04 55.5498C1084.75 56.4998 1085.67 57.3998 1086.82 58.2498C1087.97 59.0998 1089.28 59.9198 1090.76 60.6998C1092.24 61.4798 1093.74 62.2798 1095.28 63.0898C1096.82 63.8998 1098.32 64.7498 1099.8 65.6198C1101.28 66.4998 1102.59 67.4498 1103.74 68.4998C1104.89 69.5398 1105.81 70.6798 1106.52 71.9198C1107.23 73.1598 1107.58 74.5398 1107.58 76.0598C1107.58 77.7898 1107.25 79.4098 1106.6 80.9198C1105.94 82.4298 1104.96 83.7498 1103.65 84.8898C1102.34 86.0298 1100.71 86.9198 1098.76 87.5798C1096.81 88.2398 1094.55 88.5598 1091.96 88.5598C1089.88 88.5598 1088.01 88.3298 1086.37 87.8698C1084.72 87.4098 1083.27 86.7498 1082.01 85.8698C1080.75 84.9898 1079.67 83.9198 1078.78 82.6498C1077.88 81.3798 1077.14 79.9398 1076.56 78.3398L1080.5 76.7198C1080.96 78.1398 1081.57 79.4098 1082.34 80.5298C1083.11 81.6498 1084.01 82.6098 1085.04 83.3898C1086.07 84.1698 1087.22 84.7698 1088.48 85.1698C1089.74 85.5798 1091.08 85.7798 1092.5 85.7798H1092.49Z" fill="white"/>
<path d="M312.65 141.11C310.03 141.11 307.61 141.58 305.4 142.52C303.19 143.46 301.28 144.79 299.67 146.52C298.05 148.25 296.8 150.34 295.9 152.8C295 155.26 294.56 158.02 294.56 161.08C294.56 164.14 295.05 166.9 296.03 169.36C297.01 171.82 298.34 173.91 300.03 175.64C301.72 177.37 303.71 178.7 306 179.64C308.29 180.58 310.75 181.05 313.38 181.05C315.3 181.05 317.03 180.79 318.57 180.27C320.11 179.75 321.49 179.01 322.69 178.05V162.77H314.47V160.18H330V179.34C328.73 180.03 327.45 180.63 326.16 181.15C324.87 181.67 323.48 182.11 321.99 182.48C320.5 182.84 318.85 183.12 317.05 183.29C315.25 183.47 313.21 183.56 310.94 183.56C308.54 183.56 306.26 183.29 304.08 182.75C301.9 182.21 299.89 181.45 298.05 180.47C296.21 179.49 294.54 178.31 293.05 176.94C291.56 175.56 290.29 174.04 289.25 172.38C288.21 170.71 287.41 168.93 286.84 167.02C286.27 165.11 286 163.14 286 161.1C286 159.06 286.27 157.07 286.81 155.13C287.35 153.19 288.12 151.37 289.12 149.66C290.12 147.95 291.34 146.38 292.79 144.96C294.24 143.53 295.87 142.3 297.68 141.27C299.49 140.24 301.47 139.44 303.6 138.86C305.73 138.29 308.01 138 310.43 138C312.85 138 314.87 138.31 316.82 138.94C318.77 139.56 320.55 140.39 322.16 141.42C323.77 142.45 325.21 143.64 326.46 145C327.71 146.35 328.78 147.76 329.68 149.22L326.52 151.34C324.69 147.82 322.64 145.24 320.4 143.59C318.15 141.94 315.57 141.12 312.65 141.12V141.11Z" fill="white"/>
<path d="M362.27 183.55C360.02 183.55 357.86 183.27 355.8 182.72C353.74 182.17 351.82 181.39 350.05 180.39C348.28 179.39 346.66 178.19 345.21 176.78C343.75 175.37 342.51 173.82 341.49 172.11C340.47 170.4 339.68 168.57 339.11 166.61C338.55 164.65 338.27 162.61 338.27 160.49C338.27 158.37 338.55 156.41 339.11 154.49C339.67 152.57 340.46 150.78 341.49 149.11C342.51 147.44 343.75 145.93 345.21 144.56C346.67 143.2 348.28 142.02 350.05 141.04C351.82 140.06 353.74 139.31 355.8 138.77C357.86 138.23 360.02 137.97 362.27 137.97C364.52 137.97 366.68 138.24 368.74 138.77C370.8 139.3 372.72 140.06 374.49 141.04C376.26 142.02 377.87 143.19 379.33 144.56C380.79 145.92 382.03 147.44 383.05 149.11C384.07 150.78 384.86 152.57 385.43 154.49C385.99 156.41 386.27 158.41 386.27 160.49C386.27 162.57 385.99 164.63 385.43 166.6C384.87 168.57 384.08 170.41 383.05 172.12C382.03 173.83 380.79 175.39 379.33 176.79C377.87 178.2 376.26 179.4 374.49 180.4C372.72 181.4 370.8 182.18 368.74 182.73C366.68 183.28 364.52 183.56 362.27 183.56V183.55ZM362.27 181.36C364.75 181.36 366.95 180.84 368.86 179.8C370.78 178.76 372.39 177.31 373.69 175.46C374.99 173.61 375.98 171.4 376.66 168.85C377.34 166.3 377.68 163.51 377.68 160.49C377.68 157.47 377.34 154.78 376.66 152.29C375.98 149.8 374.99 147.65 373.69 145.85C372.39 144.05 370.78 142.65 368.86 141.65C366.94 140.65 364.74 140.15 362.27 140.15C359.8 140.15 357.49 140.65 355.57 141.65C353.64 142.65 352.03 144.05 350.74 145.85C349.45 147.65 348.47 149.8 347.82 152.29C347.16 154.78 346.84 157.51 346.84 160.49C346.84 163.47 347.17 166.3 347.82 168.85C348.48 171.4 349.45 173.61 350.74 175.46C352.03 177.31 353.64 178.76 355.57 179.8C357.5 180.84 359.73 181.36 362.27 181.36Z" fill="white"/>
<path d="M396.49 138.979L412.9 173.599L428.18 138.979H431.65L411.87 183.539H409.99L388.77 138.979H396.49Z" fill="white"/>
<path d="M467.46 138.98V141.79H444.52V157.35H459.86V160.16H444.52V179.69H467.46V182.5H437.21V138.97H467.46V138.98Z" fill="white"/>
<path d="M475.59 138.979H490.65C493.27 138.979 495.57 139.259 497.54 139.819C499.51 140.379 501.15 141.169 502.46 142.179C503.77 143.189 504.76 144.39 505.43 145.77C506.1 147.16 506.43 148.669 506.43 150.319C506.43 151.669 506.17 152.939 505.66 154.119C505.15 155.299 504.43 156.359 503.49 157.309C502.55 158.259 501.43 159.079 500.11 159.779C498.8 160.479 497.35 161.009 495.77 161.389L511.61 182.509H503.14L488.02 162.039H482.9V182.509H475.59V138.979ZM482.9 159.859H487.12C488.77 159.859 490.28 159.639 491.67 159.199C493.05 158.759 494.26 158.139 495.28 157.339C496.3 156.539 497.1 155.559 497.67 154.419C498.24 153.269 498.53 151.989 498.53 150.579C498.53 149.289 498.3 148.099 497.84 146.999C497.38 145.909 496.75 144.969 495.93 144.189C495.11 143.409 494.15 142.799 493.02 142.359C491.89 141.919 490.67 141.699 489.33 141.699H482.89V159.859H482.9Z" fill="white"/>
<path d="M517.09 138.979H521.18L549.71 170.789H549.99V138.979H553.21V183.539H551.52L520.61 148.129H520.36V182.509H517.08V138.979H517.09Z" fill="white"/>
<path d="M564.15 138.979H571.62L588.56 172.389H588.9L605.52 138.979H612.86V182.509H605.52V146.849H605.27L587.43 182.509H585.93L567.87 147.099H567.37V182.509H564.15V138.979Z" fill="white"/>
<path d="M654.05 138.98V141.79H631.11V157.35H646.45V160.16H631.11V179.69H654.05V182.5H623.8V138.97H654.05V138.98Z" fill="white"/>
<path d="M662.18 138.979H666.27L694.8 170.789H695.08V138.979H698.3V183.539H696.61L665.7 148.129H665.45V182.509H662.17V138.979H662.18Z" fill="white"/>
<path d="M743.87 138.979V141.789H728.12V182.509H720.81V141.789H705.03V138.979H743.87Z" fill="white"/>
<path d="M791.46 183.55C789.21 183.55 787.05 183.27 784.99 182.72C782.93 182.17 781.01 181.39 779.24 180.39C777.47 179.39 775.85 178.19 774.4 176.78C772.94 175.37 771.7 173.82 770.68 172.11C769.66 170.4 768.87 168.57 768.3 166.61C767.74 164.65 767.46 162.61 767.46 160.49C767.46 158.37 767.74 156.41 768.3 154.49C768.86 152.57 769.65 150.78 770.68 149.11C771.7 147.44 772.94 145.93 774.4 144.56C775.86 143.2 777.47 142.02 779.24 141.04C781.01 140.06 782.93 139.31 784.99 138.77C787.05 138.23 789.21 137.97 791.46 137.97C793.71 137.97 795.87 138.24 797.93 138.77C799.99 139.3 801.91 140.06 803.68 141.04C805.45 142.02 807.06 143.19 808.52 144.56C809.98 145.92 811.22 147.44 812.24 149.11C813.26 150.78 814.05 152.57 814.62 154.49C815.18 156.41 815.46 158.41 815.46 160.49C815.46 162.57 815.18 164.63 814.62 166.6C814.06 168.57 813.27 170.41 812.24 172.12C811.22 173.83 809.98 175.39 808.52 176.79C807.06 178.2 805.45 179.4 803.68 180.4C801.91 181.4 799.99 182.18 797.93 182.73C795.87 183.28 793.71 183.56 791.46 183.56V183.55ZM791.46 181.36C793.94 181.36 796.14 180.84 798.05 179.8C799.97 178.76 801.58 177.31 802.88 175.46C804.18 173.61 805.17 171.4 805.85 168.85C806.53 166.3 806.87 163.51 806.87 160.49C806.87 157.47 806.53 154.78 805.85 152.29C805.17 149.8 804.18 147.65 802.88 145.85C801.58 144.05 799.97 142.65 798.05 141.65C796.13 140.65 793.93 140.15 791.46 140.15C788.99 140.15 786.68 140.65 784.76 141.65C782.83 142.65 781.22 144.05 779.93 145.85C778.64 147.65 777.66 149.8 777.01 152.29C776.35 154.78 776.03 157.51 776.03 160.49C776.03 163.47 776.36 166.3 777.01 168.85C777.67 171.4 778.64 173.61 779.93 175.46C781.22 177.31 782.83 178.76 784.76 179.8C786.69 180.84 788.92 181.36 791.46 181.36Z" fill="white"/>
<path d="M853.05 138.98V141.79H831.83V157.35H847.17V160.16H831.83V182.5H824.52V138.97H853.05V138.98Z" fill="white"/>
<path d="M906.12 138.98V141.79H884.9V157.35H900.24V160.16H884.9V182.5H877.59V138.97H906.12V138.98Z" fill="white"/>
<path d="M911.12 138.979H918.43V167.229C918.43 169.079 918.75 170.83 919.38 172.46C920.01 174.1 920.93 175.529 922.11 176.759C923.3 177.989 924.72 178.959 926.39 179.669C928.06 180.379 929.92 180.729 931.98 180.729C934.04 180.729 935.94 180.379 937.6 179.669C939.27 178.959 940.68 177.989 941.85 176.759C943.02 175.529 943.91 174.1 944.54 172.46C945.16 170.82 945.48 169.079 945.48 167.229V138.979H948.7V167.229C948.7 169.459 948.34 171.559 947.62 173.529C946.9 175.499 945.77 177.229 944.23 178.719C942.69 180.209 940.71 181.389 938.31 182.249C935.91 183.109 933.01 183.549 929.64 183.549C926.64 183.549 923.98 183.119 921.67 182.249C919.36 181.379 917.42 180.199 915.86 178.699C914.3 177.199 913.11 175.449 912.31 173.449C911.51 171.449 911.11 169.329 911.11 167.069V138.979H911.12Z" fill="white"/>
<path d="M978.49 170.049C978.49 171.629 978.34 173.199 978.05 174.739C977.76 176.279 977.17 177.659 976.3 178.879C975.43 180.099 974.18 181.079 972.55 181.829C970.92 182.579 968.78 182.949 966.11 182.949C964.61 182.949 963.25 182.809 962.03 182.529C960.81 182.249 959.71 181.879 958.72 181.439C957.73 180.989 956.84 180.479 956.05 179.909C955.26 179.339 954.52 178.769 953.83 178.209L956.14 175.119C956.62 175.519 957.2 176.009 957.87 176.589C958.55 177.169 959.29 177.739 960.09 178.279C960.89 178.819 961.72 179.289 962.59 179.669C963.45 180.059 964.32 180.249 965.2 180.249C967.12 180.249 968.59 179.749 969.62 178.729C970.65 177.719 971.17 176.359 971.17 174.649V138.989H978.48V170.049H978.49Z" fill="white"/>
<path d="M1006.9 137.979L1027.4 182.509H1019.96L1013.3 167.979H994.64L987.76 182.509H984.1L1005.07 137.979H1006.88H1006.9ZM995.93 165.169H1011.96L1004.05 147.949L995.93 165.169Z" fill="white"/>
<path d="M1033.02 138.979H1040.33V182.509H1033.02V138.979Z" fill="white"/>
<path d="M1051.27 138.979H1066.33C1068.95 138.979 1071.25 139.259 1073.22 139.819C1075.19 140.379 1076.83 141.169 1078.14 142.179C1079.45 143.189 1080.44 144.39 1081.11 145.77C1081.78 147.16 1082.11 148.669 1082.11 150.319C1082.11 151.669 1081.85 152.939 1081.34 154.119C1080.83 155.299 1080.11 156.359 1079.17 157.309C1078.23 158.259 1077.11 159.079 1075.79 159.779C1074.48 160.479 1073.03 161.009 1071.45 161.389L1087.29 182.509H1078.82L1063.7 162.039H1058.58V182.509H1051.27V138.979ZM1058.58 159.859H1062.8C1064.45 159.859 1065.96 159.639 1067.35 159.199C1068.73 158.759 1069.94 158.139 1070.96 157.339C1071.98 156.539 1072.78 155.559 1073.35 154.419C1073.92 153.269 1074.21 151.989 1074.21 150.579C1074.21 149.289 1073.98 148.099 1073.52 146.999C1073.06 145.909 1072.43 144.969 1071.61 144.189C1070.79 143.409 1069.83 142.799 1068.7 142.359C1067.57 141.919 1066.35 141.699 1065.01 141.699H1058.57V159.859H1058.58Z" fill="white"/>
<path d="M1110.24 137.979L1130.74 182.509H1123.3L1116.64 167.979H1097.98L1091.1 182.509H1087.44L1108.41 137.979H1110.22H1110.24ZM1099.27 165.169H1115.3L1107.39 147.949L1099.27 165.169Z" fill="white"/>
<path d="M1143.68 161.639V182.519H1136.37V138.989H1143.68V158.829H1165.56V138.989H1172.87V182.519H1165.56V161.639H1143.68Z" fill="white"/>
<g clip-path="url(#clip0_1185_976)">
<path d="M85.3878 204.538C54.2418 173.746 45.6924 135.28 41.9813 109.134L40.9921 101.274C39.1515 84.5587 39.3134 54.0962 39.4273 44.018L40.7583 43.8381C73.2592 39.4316 100.37 30.3905 123.62 16.1875C146.379 30.0788 174.593 39.3776 207.49 43.8381L208.826 44.018C208.922 53.8025 209.072 85.0623 207.166 101.933L205.991 110.914C199.863 151.761 186.158 181.51 162.872 204.538C151.199 216.079 130.287 228.478 124.13 232.021C118.764 228.927 97.1087 216.139 85.3878 204.538Z" fill="white"/>
<path d="M194.879 53.1968L193.063 52.951C186.396 52.0337 179.963 50.8706 173.788 49.4677C173.662 49.4377 173.524 49.4138 173.404 49.3838C173.404 66.8603 173.404 110.309 173.404 110.309L173.35 95.0026V174.933C175.772 171.144 177.949 167.289 179.873 163.38C180.059 163.014 180.227 162.648 180.407 162.277C180.97 161.113 181.51 159.938 182.031 158.769C182.481 157.756 182.925 156.743 183.35 155.712C183.56 155.202 183.764 154.692 183.968 154.183C184.507 152.84 185.029 151.491 185.533 150.118C185.611 149.902 185.689 149.68 185.767 149.464C186.348 147.828 186.912 146.173 187.457 144.488C187.457 144.476 187.457 144.47 187.457 144.458C189.783 137.18 191.666 129.386 193.159 121.028C193.171 120.969 193.183 120.909 193.195 120.855C193.56 118.786 193.902 116.688 194.22 114.547L195.203 106.999C195.401 105.153 196.013 96.2076 196.013 96.2076C196.93 77.9757 196.564 53.4247 196.564 53.4247L194.885 53.1909L194.879 53.1968Z" fill="#B32024"/>
<path d="M52.9945 53.1932L51.3098 53.427C51.3098 53.427 50.9321 78.5236 51.8614 96.5997L52.0892 100.575C52.2331 102.679 52.395 104.639 52.5868 106.384L53.4022 112.991C53.4202 113.093 53.4382 113.201 53.4502 113.303C53.5581 114.022 53.654 114.742 53.7619 115.461C53.7739 115.527 53.7859 115.593 53.7979 115.659C56.3639 132.62 60.9564 150.606 70.1053 167.495C70.1413 167.567 70.1773 167.639 70.2192 167.711C70.561 168.346 70.9267 168.976 71.2804 169.605C71.4363 169.887 71.5982 170.169 71.76 170.445C72.0478 170.93 72.3356 171.422 72.6294 171.908C72.8752 172.321 73.121 172.735 73.3728 173.149C73.3908 173.173 73.4088 173.203 73.4208 173.227V100.419C73.4208 100.419 73.4507 62.7618 73.4567 49.542C67.4853 50.8969 61.2921 52.0421 54.7991 52.9354L52.9945 53.1812V53.1932Z" fill="#B32024"/>
<path d="M129.292 241.098C134.07 238.382 157.578 224.731 170.822 211.643C195.691 187.05 210.277 155.622 216.728 112.623L217.915 103.588C220.164 83.6655 219.66 46.3743 219.594 42.1955L219.474 34.1857L207.346 32.543C176.332 28.3402 149.964 19.587 129.004 6.54106L123.422 3.05176L117.871 6.53507C96.4073 19.8808 71.1068 28.3882 40.5005 32.537L28.3838 34.1797L28.2579 42.1895C28.198 46.3443 27.6884 83.3298 29.8407 102.887L30.8299 110.789C34.7329 138.337 43.7799 178.764 77.0303 211.643C90.346 224.815 114.016 238.526 118.632 241.14L123.914 244.222L129.286 241.098H129.292ZM85.9514 202.626C55.423 172.445 47.0414 134.74 43.4022 109.11L42.431 101.406C40.6264 85.0205 40.7823 55.1635 40.8962 45.2771L42.2032 45.1033C74.0626 40.7866 100.64 31.9195 123.428 17.9982C145.737 31.6137 173.394 40.7327 205.643 45.1033L206.956 45.2771C207.052 54.8637 207.196 85.5121 205.325 102.047L204.168 110.855C198.161 150.892 184.731 180.053 161.901 202.626C150.456 213.939 129.963 226.092 123.926 229.563C118.668 226.529 97.4445 213.993 85.9514 202.626Z" fill="black"/>
<path d="M138.907 134.411C137.87 135.196 129.758 141.228 123.517 145.868C123.937 146.18 124.338 146.474 124.734 146.768L139.938 135.298L139.207 134.327C139.057 134.351 138.913 134.405 138.913 134.405L138.907 134.411Z" fill="black"/>
<path d="M119.1 151.009C118.722 150.704 118.314 150.38 117.895 150.038C117.313 150.476 116.839 150.823 116.558 151.033L117.469 152.238L119.1 151.009Z" fill="black"/>
<path d="M159.046 121.574L141.432 134.704L143.632 137.606L160.683 123.745L159.046 121.574Z" fill="black"/>
<path d="M101.473 164.101L100.112 165.132L100.892 166.265L101.102 166.415L101.305 166.565L101.533 166.721H101.545V166.727L101.767 166.895L103.008 167.806C102.738 167.332 102.804 166.751 103.176 166.349L101.467 164.095L101.473 164.101Z" fill="black"/>
<path d="M106.414 168.035L106.3 167.945L106.384 167.879L105.149 166.584C105.461 167.124 105.353 167.819 104.843 168.209C104.543 168.431 104.178 168.497 103.836 168.431L105.275 169.486L106.414 168.041V168.035Z" fill="black"/>
<path d="M107.43 160.855L106.909 160.172L102.448 163.553L102.202 163.733L102.124 163.607L101.573 164.027L103.257 166.263C103.257 166.263 103.293 166.221 103.311 166.203C103.725 165.891 104.271 165.873 104.696 166.113L103.215 164.554L103.006 164.327L103.251 164.135L107.43 160.855Z" fill="black"/>
<path d="M103.181 160.752L103.049 160.573L102.24 161.238L101.604 160.698L101.346 161.118L101.94 161.748L101.676 162.011L101.718 162.431L102.204 163.193L102.281 163.318L106.748 159.937L106.664 159.823L105.843 158.75L103.181 160.752Z" fill="black"/>
<path d="M161.603 122.826C161.645 122.868 161.675 122.88 161.711 122.898L160.098 120.806L159.373 121.339L160.895 123.354L161.603 122.82V122.826Z" fill="black"/>
<path d="M163.012 116.453L163.132 116.363L163.305 116.591L163.917 117.37L163.977 117.454L164.019 117.508L164.199 117.742L164.942 118.701C165.29 118.443 165.931 117.952 166.201 117.754C166.387 117.61 166.399 117.406 166.369 117.238L166.285 117.124L165.356 115.877L165.272 115.763L164.57 114.822C164.037 114.21 163.605 113.953 162.766 114.588C162.31 114.936 162.376 115.451 162.55 115.889L163 116.465L163.012 116.453ZM164.157 114.924C164.403 115.248 164.337 115.709 164.013 115.961C163.689 116.207 163.222 116.147 162.976 115.817C162.73 115.493 162.79 115.032 163.114 114.78C163.443 114.534 163.911 114.594 164.157 114.924Z" fill="black"/>
<path d="M159.199 121.112H159.205L159.918 120.572H159.912L159.822 120.458L159.145 119.577L158.479 120.159L159.115 120.998L159.199 121.112Z" fill="black"/>
<path d="M105.987 170.039C106.149 170.291 106.449 170.747 106.904 171.113C107.306 171.442 107.828 171.688 108.475 171.628C108.889 171.586 109.35 171.436 109.866 171.095C109.98 171.023 110.076 170.951 110.178 170.873C111.305 170.021 111.677 169.044 111.802 168.373L111.593 167.947L111.449 167.641L111.281 167.281L110.334 165.291L110.088 165.411L106.892 168.019L106.682 168.187L106.67 168.175H106.658L105.507 169.644L105.579 169.704L105.555 169.728L105.975 170.039H105.987ZM107.132 170.945C106.323 169.955 106.826 168.954 106.826 168.954C106.664 169.416 106.964 170.267 106.964 170.267C107.78 171.424 108.469 170.903 108.469 170.903H108.241C108.013 170.903 106.994 170.081 107.3 169.506C107.606 168.93 108.043 167.629 108.043 167.629C108.043 167.629 108.229 167.437 108.511 167.228C109.105 166.778 110.142 166.226 110.873 167.144C111.952 168.493 110.561 169.895 110.022 170.471C109.938 170.567 109.824 170.669 109.692 170.771C109.003 171.286 107.804 171.778 107.132 170.951V170.945Z" fill="black"/>
<path d="M103.155 167.474C103.167 167.516 103.191 167.546 103.203 167.582C103.239 167.654 103.257 167.726 103.305 167.792C103.629 168.223 104.246 168.307 104.672 167.983C105.104 167.66 105.194 167.042 104.864 166.61C104.546 166.185 103.929 166.095 103.497 166.419C103.485 166.425 103.479 166.443 103.467 166.449C103.407 166.497 103.359 166.562 103.317 166.622C103.275 166.676 103.239 166.742 103.209 166.802C103.185 166.844 103.173 166.886 103.167 166.934C103.143 167 103.125 167.066 103.119 167.132C103.119 167.18 103.119 167.222 103.119 167.264C103.119 167.336 103.119 167.408 103.149 167.474H103.155Z" fill="black"/>
<path d="M141.178 134.361L141.262 134.475H141.268L158.883 121.357L158.799 121.244L158.067 120.278L157.941 120.302C156.616 121.31 142.138 132.011 140.381 133.306L141.19 134.367L141.178 134.361Z" fill="black"/>
<path d="M141.95 139.633C141.95 139.633 142.357 139.339 142.771 139.046L140.187 135.64L140.103 135.526H140.097L124.965 146.942C125.007 146.972 125.049 147.001 125.091 147.031C126.524 148.099 127.771 149.022 128.664 149.687C133.604 145.695 140.811 139.867 140.811 139.867C141.086 140.227 141.95 139.633 141.95 139.633Z" fill="black"/>
<path d="M123.073 154.248C122.743 153.966 122.443 153.714 122.185 153.504C121.886 153.265 120.854 152.431 119.445 151.292C119.403 151.262 119.367 151.232 119.326 151.202L117.539 152.551L117.629 152.665L117.521 152.743L117.395 152.833L117.017 153.115L116.795 153.289L115.554 154.224L115.345 155.099L115.321 155.195L115.243 155.255L108.858 160.273L108.642 160.441L107.904 161.017L107.826 161.083L107.742 161.148L107.682 161.196L107.599 161.083L103.426 164.356L106.609 167.701L106.705 167.803L106.819 167.713L109.007 165.933L108.977 165.945L108.444 166.203L110.272 164.716L111.49 163.72L111.771 163.499L111.819 163.457L114.391 161.364L114.655 161.154L114.715 161.107L116.993 159.248L117.263 159.026L117.329 159.158L117.359 159.134L119.943 157.138C120.764 156.352 121.969 155.213 123.073 154.248Z" fill="black"/>
<path d="M163.973 117.897H163.961L163.847 117.981L162.756 118.767L164.327 120.847H164.333C164.53 120.703 164.746 120.553 164.92 120.422C165.496 119.984 165.208 119.522 165.208 119.522L164.884 119.097L164.722 118.881V118.869L163.973 117.903V117.897Z" fill="black"/>
<path d="M107.28 157.656L106.183 158.484L106.075 158.574H106.069L106.885 159.653L106.969 159.767L107.059 159.881L107.149 159.994L107.658 160.678L107.748 160.792V160.798L107.754 160.792L107.862 160.708L108.473 160.222H108.467L108.378 160.114L107.7 159.311L107.658 159.269L107.646 159.203L107.286 157.914L107.238 157.734L107.304 157.68L107.28 157.656Z" fill="black"/>
<path d="M109.589 157.613C108.719 158.273 108.054 157.469 108.054 157.469L107.676 157.745L107.556 157.841L107.91 159.13L108.593 159.939L108.689 160.047L108.803 159.957L115.074 155.029L115.308 154.058L115.326 154.04L116.513 153.147L116.429 153.027L115.77 152.151L114.193 153.44L110.254 156.534C110.254 156.534 110.458 156.954 109.589 157.607V157.613Z" fill="black"/>
<path d="M139.665 134.281L143.1 138.82C143.244 138.712 143.376 138.622 143.46 138.556C143.574 138.472 143.616 138.364 143.622 138.256L140.253 133.802L139.671 134.281H139.665Z" fill="black"/>
<path d="M160.055 120.296L160.145 120.41L160.235 120.523L160.319 120.637L162.034 122.85C162.034 122.85 162.082 122.82 162.1 122.802C162.118 122.79 162.13 122.778 162.142 122.76C162.274 122.64 162.388 122.508 162.388 122.508C162.388 122.508 163.041 123.149 163.551 122.766C164.06 122.382 163.401 121.513 163.401 121.513C163.401 121.513 163.659 121.333 163.976 121.105C164.012 121.075 164.054 121.051 164.096 121.021L162.519 118.929L162.406 119.013L162.232 118.791L162.142 118.671L162.118 118.641L161.572 117.921L161.404 117.7L161.446 117.67C161.338 117.664 161.236 117.67 161.236 117.67L159.342 119.151L159.228 119.24L159.252 119.27L160.043 120.29L160.055 120.296Z" fill="black"/>
<path d="M162.45 118.603L162.468 118.627L162.582 118.543L163.673 117.764L163.799 117.68L163.769 117.65L163.685 117.536L163.085 116.763H163.073L162.965 116.847L161.922 117.668L161.808 117.758V117.764L162.36 118.489L162.45 118.603Z" fill="black"/>
<path d="M111.847 167.723V167.735C111.871 167.849 111.943 167.999 112.111 168.119C112.237 168.209 112.393 168.281 112.65 168.305C112.956 168.335 113.214 168.221 113.43 168.059C113.825 167.759 114.059 167.298 114.059 167.298C114.059 167.298 116.871 163.173 117.495 162.19C118.118 161.206 117.495 160.079 117.495 160.079L117.243 159.594L117.177 159.468L114.899 161.32L114.971 161.446L116.056 163.371L115.696 163.575L114.641 161.71L114.575 161.584L112.003 163.677L112.063 163.808L113.67 167.01L113.304 167.19L111.739 164.072L111.673 163.94L110.588 164.828L110.468 164.918L110.456 164.93H110.468L110.528 165.055L111.583 167.262L111.739 167.592L111.799 167.729H111.811L111.847 167.831V167.723Z" fill="black"/>
<path d="M116.212 151.29L115.769 151.686L115.781 151.71L115.817 151.752L115.9 151.866L116.656 152.861L116.74 152.975L116.86 152.891L117.237 152.609L117.147 152.489L116.236 151.278L116.218 151.29H116.212Z" fill="black"/>
<path d="M107.375 134.324L106.638 135.296L121.842 146.765L121.962 146.855L122.082 146.945L123.299 147.862L123.419 147.952L123.533 148.042L123.653 148.132L127.256 150.842L127.37 150.932L127.49 151.021L129.12 152.251L130.026 151.045C129.738 150.83 129.276 150.488 128.689 150.05C128.653 150.02 128.611 149.99 128.569 149.96C128.527 149.93 128.491 149.9 128.449 149.87C127.514 149.169 126.273 148.252 124.876 147.208C124.834 147.178 124.798 147.148 124.756 147.118C124.714 147.089 124.678 147.059 124.636 147.029C124.588 146.999 124.552 146.969 124.51 146.939C124.12 146.645 123.707 146.345 123.293 146.033C123.251 146.003 123.215 145.973 123.173 145.943C123.131 145.913 123.095 145.883 123.053 145.853C116.812 141.213 108.7 135.182 107.663 134.396C107.663 134.396 107.525 134.342 107.369 134.318L107.375 134.324Z" fill="black"/>
<path d="M105.138 134.704L87.5236 121.574L85.8809 123.745L102.938 137.606L105.138 134.704Z" fill="black"/>
<path d="M141.867 166.108C142.293 165.869 142.838 165.887 143.252 166.198C143.276 166.216 143.288 166.246 143.306 166.258L144.997 164.022L144.445 163.602L144.367 163.728L144.121 163.548L139.655 160.167L139.133 160.85L143.312 164.13L143.558 164.322L143.348 164.55L141.867 166.108Z" fill="black"/>
<path d="M142.73 168.421C142.388 168.487 142.022 168.421 141.728 168.199C141.219 167.815 141.105 167.114 141.423 166.574L140.188 167.869L140.271 167.935L140.164 168.025L141.297 169.47L142.73 168.415V168.421Z" fill="black"/>
<path d="M145.27 166.564H145.276L145.474 166.427L145.684 166.277L146.463 165.144L145.102 164.112L143.394 166.367C143.765 166.768 143.831 167.35 143.561 167.823L144.802 166.912L145.03 166.75V166.744H145.048L145.27 166.576V166.564Z" fill="black"/>
<path d="M144.972 160.698L144.336 161.238L143.527 160.573L143.389 160.752L140.727 158.75L139.918 159.823L139.834 159.937H139.828L144.288 163.318H144.294L144.372 163.193L144.858 162.431L144.894 162.011L144.63 161.748L145.223 161.118L144.972 160.698Z" fill="black"/>
<path d="M84.8608 122.899C84.9028 122.881 84.9328 122.869 84.9688 122.827L85.6762 123.361L87.199 121.346L86.4796 120.812L84.8608 122.905V122.899Z" fill="black"/>
<path d="M80.1933 117.225C80.1633 117.398 80.1813 117.608 80.3671 117.746C80.6309 117.944 81.2784 118.436 81.6202 118.699L82.3636 117.74L82.5435 117.506L82.5854 117.452L82.6514 117.369L83.2569 116.589L83.4368 116.361L83.5507 116.451L84.0003 115.876C84.1862 115.432 84.2461 114.922 83.7905 114.575C82.9511 113.939 82.5195 114.203 81.9799 114.808L81.2844 115.75L81.1945 115.864L80.2712 117.111L80.1873 117.219L80.1933 117.225ZM82.4176 114.922C82.6634 114.593 83.131 114.533 83.4548 114.779C83.7785 115.024 83.8385 115.486 83.5927 115.816C83.3468 116.145 82.8852 116.205 82.5555 115.96C82.2317 115.714 82.1658 115.252 82.4176 114.922Z" fill="black"/>
<path d="M86.6533 120.572L87.3728 121.112H87.3788L87.4567 120.998L88.0922 120.159L87.4327 119.577L86.7433 120.458L86.6533 120.572Z" fill="black"/>
<path d="M141.064 169.65L139.907 168.169H139.895L139.883 168.187L139.679 168.019L136.478 165.411L136.232 165.291L135.291 167.281L135.117 167.641L134.973 167.947L134.769 168.373C134.889 169.038 135.261 170.021 136.388 170.873C136.49 170.951 136.592 171.023 136.7 171.095C137.215 171.43 137.671 171.586 138.09 171.628C138.738 171.688 139.266 171.442 139.667 171.113C140.117 170.747 140.417 170.291 140.585 170.039L140.998 169.728L140.98 169.704L141.046 169.65H141.058H141.064ZM139.439 170.939C138.768 171.766 137.569 171.274 136.885 170.759C136.754 170.657 136.634 170.555 136.55 170.459C136.01 169.883 134.625 168.481 135.698 167.132C136.43 166.214 137.473 166.766 138.066 167.216C138.348 167.425 138.528 167.617 138.528 167.617C138.528 167.617 138.972 168.918 139.278 169.494C139.583 170.069 138.558 170.897 138.33 170.897H138.108C138.108 170.897 138.798 171.418 139.607 170.261C139.607 170.261 139.913 169.41 139.751 168.948C139.751 168.948 140.243 169.949 139.439 170.939Z" fill="black"/>
<path d="M143.368 167.587C143.386 167.551 143.41 167.521 143.416 167.479C143.44 167.414 143.44 167.342 143.446 167.27C143.446 167.222 143.458 167.18 143.446 167.138C143.446 167.072 143.422 167.006 143.41 166.94C143.392 166.892 143.38 166.85 143.362 166.808C143.332 166.748 143.296 166.688 143.248 166.628C143.2 166.568 143.158 166.508 143.098 166.454C143.086 166.448 143.08 166.436 143.074 166.424C142.643 166.101 142.025 166.184 141.701 166.616C141.372 167.048 141.461 167.665 141.893 167.989C142.325 168.313 142.936 168.229 143.266 167.797C143.314 167.737 143.332 167.665 143.362 167.587H143.368Z" fill="black"/>
<path d="M88.5161 120.272L87.7846 121.238L87.7007 121.352L105.315 134.481L105.399 134.362L106.208 133.3C104.452 131.999 89.9789 121.298 88.6539 120.296L88.528 120.272H88.5161Z" fill="black"/>
<path d="M123.399 154.152C123.435 154.182 123.465 154.218 123.507 154.248C124.61 155.213 125.81 156.353 126.631 157.138L129.209 159.146L129.245 159.158L129.311 159.027L129.575 159.248L131.859 161.107L131.919 161.155L132.177 161.365L134.755 163.457L134.803 163.499L135.078 163.721L136.301 164.716L138.13 166.209L137.59 165.951L137.56 165.939L139.749 167.72L139.863 167.81L139.965 167.708L143.142 164.362L138.969 161.083L138.885 161.203L138.832 161.155L138.748 161.089L138.664 161.023L137.926 160.447L137.71 160.28L131.325 155.261L131.247 155.201L131.223 155.106L131.02 154.23L129.779 153.295L129.551 153.121L129.173 152.839L129.053 152.749L128.951 152.671L129.035 152.558L127.248 151.203L127.135 151.113L127.015 151.023L123.405 148.301L123.286 148.211L123.172 148.121L123.052 148.031L121.829 147.114L121.709 147.024L121.595 146.934L106.457 135.513L106.367 135.633L103.789 139.038C104.196 139.332 104.61 139.626 104.61 139.626C104.61 139.626 105.473 140.219 105.743 139.859C105.743 139.859 112.95 145.687 117.89 149.68C117.932 149.71 117.968 149.74 118.01 149.77C118.046 149.8 118.082 149.83 118.124 149.86C118.543 150.201 118.945 150.525 119.329 150.831C119.371 150.861 119.401 150.891 119.442 150.927C119.478 150.963 119.514 150.987 119.55 151.017C119.592 151.047 119.628 151.083 119.67 151.113C121.043 152.228 122.056 153.043 122.35 153.277C122.638 153.505 122.956 153.775 123.274 154.056C123.315 154.086 123.345 154.11 123.387 154.146L123.399 154.152Z" fill="black"/>
<path d="M81.6899 119.099L81.3662 119.525C81.3662 119.525 81.0724 119.987 81.654 120.424C81.8338 120.556 82.0377 120.706 82.2475 120.856L83.8183 118.77L82.7271 117.984L82.6132 117.906V117.9L81.8638 118.866V118.878L81.7019 119.093L81.6899 119.099Z" fill="black"/>
<path d="M138.82 160.792L138.826 160.798L138.832 160.792L138.916 160.678L139.432 159.994L139.515 159.881L139.599 159.767L139.689 159.653L140.505 158.574H140.499L140.385 158.484L139.288 157.656L139.27 157.68L139.336 157.734L139.282 157.914L138.928 159.203L138.916 159.269L138.874 159.311L138.191 160.114L138.101 160.222L138.706 160.708L138.82 160.792Z" fill="black"/>
<path d="M131.269 154.062L131.502 155.033L137.768 159.961L137.882 160.051L137.972 159.943L138.655 159.134L139.009 157.845L138.883 157.749L138.517 157.473C138.517 157.473 137.852 158.282 136.976 157.617C136.107 156.957 136.311 156.544 136.311 156.544L132.372 153.45L130.807 152.161L130.142 153.036L130.058 153.15L131.245 154.05L131.269 154.068V154.062Z" fill="black"/>
<path d="M102.95 138.256C102.962 138.364 103.004 138.472 103.112 138.556C103.202 138.622 103.321 138.712 103.471 138.82L106.907 134.281L106.325 133.802L102.956 138.256H102.95Z" fill="black"/>
<path d="M84.4462 118.643L84.4223 118.673L84.3323 118.793L84.1645 119.015L84.0446 118.931L82.4678 121.017C82.5097 121.047 82.5457 121.077 82.5877 121.101C82.9054 121.329 83.1632 121.509 83.1632 121.509C83.1632 121.509 82.5037 122.378 83.0134 122.762C83.523 123.146 84.1765 122.504 84.1765 122.504C84.1765 122.504 84.2904 122.636 84.4223 122.756C84.4403 122.768 84.4522 122.786 84.4702 122.798C84.4882 122.816 84.5122 122.834 84.5362 122.846L86.2568 120.634L86.3408 120.52L86.4307 120.406L86.5146 120.292L87.312 119.273L87.33 119.243L87.2161 119.153L85.3216 117.672C85.3216 117.672 85.2256 117.672 85.1117 117.672L85.1477 117.702L84.9798 117.924L84.4343 118.643H84.4462Z" fill="black"/>
<path d="M83.4869 116.763L82.8873 117.536L82.8034 117.65L82.7734 117.68H82.7854L82.8873 117.764L83.9845 118.543L84.1044 118.627L84.1344 118.603L84.2183 118.489L84.7639 117.764L84.7519 117.758L84.65 117.668L83.6008 116.847L83.4869 116.763Z" fill="black"/>
<path d="M134.727 167.736C134.727 167.736 134.727 167.784 134.727 167.82V167.832L134.775 167.742L134.841 167.598L134.991 167.269L136.046 165.062L136.106 164.931H136.118L136.106 164.925L135.992 164.835L134.901 163.947L134.841 164.085L133.276 167.203L132.91 167.023L134.517 163.821L134.577 163.695L131.999 161.597L131.927 161.723L130.872 163.588L130.518 163.384L131.597 161.459L131.675 161.333L129.397 159.469L129.331 159.601L129.079 160.086C129.079 160.086 128.456 161.213 129.079 162.197C129.703 163.18 132.515 167.305 132.515 167.305C132.515 167.305 132.737 167.766 133.138 168.066C133.36 168.228 133.618 168.342 133.924 168.312C134.175 168.288 134.331 168.21 134.457 168.126C134.631 168.006 134.703 167.856 134.721 167.748V167.742C134.721 167.742 134.721 167.742 134.721 167.736V167.754L134.727 167.736Z" fill="black"/>
<path d="M129.343 152.603L129.72 152.891L129.834 152.975L129.918 152.861L130.674 151.866L130.758 151.752L130.788 151.71L130.806 151.686L130.356 151.29C130.356 151.29 130.356 151.29 130.338 151.278L129.427 152.489L129.343 152.603Z" fill="black"/>
<path d="M127.025 222.55C130.856 220.35 150.527 208.809 161.456 197.879C181.936 177.393 193.963 151.151 199.287 115.233L200.276 107.589C202.201 90.3701 201.697 54.8416 201.679 53.3367L201.613 48.9781L193.801 47.9049C186.715 46.9337 179.946 45.6567 173.441 44.1218C171.936 43.7681 170.461 43.3964 168.986 43.0127C168.986 44.4096 168.95 100.412 168.95 100.412V113.53C168.866 113.476 168.812 113.44 168.812 113.44L165.701 115.785L166.462 116.81L168.95 114.927V181.38C168.321 182.237 167.667 183.095 167.008 183.946C166.54 184.545 166.067 185.145 165.587 185.732C165.515 185.822 165.269 186.116 164.891 186.554C164.861 186.59 164.831 186.626 164.801 186.662C164.772 186.698 164.742 186.734 164.712 186.77C162.841 184.893 159.741 181.967 155.91 179.072C149.567 174.263 148.002 173.082 146.624 169.479C146.624 169.479 145.79 167.824 145.221 166.985C145.221 166.985 145.221 166.985 145.221 166.979L144.999 167.141L141.485 169.719L141.408 169.779C141.408 169.779 141.42 169.797 141.426 169.803C141.977 170.504 143.686 172.717 144.429 173.754C145.317 174.995 146.348 176.799 145.478 178.256C145.478 178.256 146.108 179.533 147.715 180.804C149.321 182.075 152.085 187.243 153.854 190.187L154.298 191.032C154.298 191.032 153.992 191.662 154.172 191.962C154.172 191.962 153.8 193.281 153.95 193.616C153.95 193.616 154.034 193.934 154.394 194.204C154.567 194.336 154.813 194.462 155.143 194.522C155.143 194.522 155.161 194.498 155.167 194.492C155.191 194.456 155.263 194.33 155.341 194.09C155.419 193.844 155.497 193.497 155.491 193.011C155.491 193.011 156.042 194.204 156.75 195.313C156.708 195.349 156.678 195.379 156.642 195.409C156.606 195.445 156.576 195.481 156.54 195.511C155.91 196.122 155.269 196.734 154.609 197.34C142.792 207.759 124.627 218.072 124.441 218.185L123.955 218.473L123.895 218.437L123.469 218.185C123.284 218.072 105.309 207.873 93.4866 197.519C92.4434 196.494 91.4901 195.535 90.6028 194.63C90.5668 194.594 90.5308 194.558 90.4949 194.522C90.4589 194.486 90.4289 194.45 90.3929 194.414C90.8246 193.64 91.1184 193.005 91.1184 193.005C91.1184 193.485 91.1843 193.838 91.2623 194.084C91.3462 194.324 91.4122 194.45 91.4421 194.486C91.4421 194.492 91.4601 194.516 91.4601 194.516C91.7959 194.456 92.0357 194.33 92.2155 194.198C92.5693 193.928 92.6592 193.61 92.6592 193.61C92.8031 193.275 92.4374 191.956 92.4374 191.956C92.6052 191.656 92.3055 191.026 92.3055 191.026L92.7491 190.181C94.5238 187.243 97.2876 182.069 98.8884 180.798C100.495 179.527 101.131 178.25 101.131 178.25C100.255 176.793 101.287 174.989 102.174 173.748C102.917 172.711 104.632 170.498 105.178 169.797C105.178 169.797 105.19 169.785 105.196 169.779L105.112 169.719L101.598 167.141L101.382 166.979C101.382 166.979 101.382 166.979 101.382 166.985C100.813 167.824 99.9795 169.479 99.9795 169.479C98.6006 173.088 97.0418 174.269 90.6927 179.072C87.3113 181.632 84.4935 184.216 82.593 186.074C82.557 186.038 82.539 186.002 82.503 185.966C82.4731 185.93 82.4491 185.894 82.4131 185.858C82.0354 185.385 81.6457 184.917 81.274 184.443C81.0522 184.162 80.8363 183.88 80.6145 183.598C80.1768 183.035 79.7452 182.471 79.3135 181.901C79.1037 181.614 78.8938 181.332 78.684 181.044C78.4022 180.66 78.1264 180.277 77.8566 179.887C77.8566 179.887 77.8686 148.076 77.8806 115.449V115.095L80.1469 116.804L80.9023 115.779L77.8866 113.494V113.135C77.8986 85.1122 77.9046 44.7154 77.9046 43.2285C76.4357 43.6062 74.9549 43.972 73.45 44.3257C67.2808 45.7646 60.8597 46.9696 54.109 47.8929L46.297 48.9661L46.231 53.3187C46.2071 54.8116 45.7034 90.0764 47.544 106.941L48.3774 113.62C51.0213 132.482 56.5011 158.549 73.42 182.405V182.495H73.486C77.2211 187.759 81.5138 192.915 86.454 197.855C97.3895 208.797 117.048 220.326 120.933 222.556L123.967 224.349L127.061 222.526L127.025 222.55ZM173.387 94.9926L173.441 110.299C173.441 110.299 173.441 66.8503 173.441 49.3738C173.567 49.4038 173.699 49.4277 173.825 49.4577C180 50.8606 186.433 52.0237 193.1 52.941L194.916 53.1868L196.595 53.4207C196.595 53.4207 196.961 77.9657 196.043 96.2036C196.043 96.2036 195.438 105.149 195.234 106.995L194.251 114.543C193.933 116.684 193.591 118.782 193.226 120.851C193.214 120.911 193.202 120.965 193.19 121.024C191.703 129.382 189.814 137.176 187.488 144.454C187.488 144.46 187.488 144.472 187.488 144.484C186.942 146.169 186.379 147.824 185.797 149.461C185.719 149.676 185.641 149.898 185.563 150.114C185.06 151.493 184.538 152.842 183.999 154.179C183.801 154.688 183.597 155.204 183.381 155.708C182.955 156.739 182.506 157.758 182.062 158.765C181.541 159.934 180.995 161.104 180.437 162.273C180.258 162.638 180.09 163.004 179.904 163.376C177.979 167.285 175.797 171.14 173.381 174.929V94.9986L173.387 94.9926ZM154.28 192.861L154.729 192.339C154.843 192.489 155.029 194.054 155.029 194.054L154.34 193.532L154.28 192.861ZM92.2395 193.532L91.55 194.054C91.55 194.054 91.7299 192.489 91.8498 192.339L92.3055 192.861L92.2455 193.532H92.2395ZM53.7253 115.455C53.6173 114.735 53.5154 114.016 53.4135 113.296C53.4015 113.195 53.3835 113.087 53.3655 112.985L52.5502 106.378C52.3583 104.633 52.1964 102.667 52.0525 100.568L51.8247 96.5933C50.8954 78.5173 51.2731 53.4207 51.2731 53.4207L52.9578 53.1868L54.7625 52.941C61.2554 52.0477 67.4487 50.9026 73.42 49.5477C73.42 62.7674 73.3841 100.424 73.3841 100.424V173.232C73.3841 173.232 73.3481 173.178 73.3361 173.154C73.0843 172.741 72.8385 172.327 72.5927 171.913C72.2989 171.428 72.0111 170.936 71.7234 170.45C71.5615 170.169 71.3996 169.887 71.2437 169.611C70.89 168.981 70.5243 168.352 70.1825 167.716C70.1406 167.644 70.1046 167.573 70.0686 167.501C60.9197 150.612 56.3272 132.626 53.7612 115.665C53.7492 115.599 53.7372 115.533 53.7253 115.467V115.455Z" fill="black"/>
<path fill-rule="evenodd" clip-rule="evenodd" d="M163.405 70.3721C161.018 72.0508 161.948 76.1576 162.254 76.1996C162.559 76.2415 164.274 93.5682 162.379 102.705C164.939 99.7494 165.509 74.1671 163.399 70.3721H163.405Z" fill="black"/>
<path fill-rule="evenodd" clip-rule="evenodd" d="M120.005 92.5736C120.16 92.5736 120.322 92.6216 120.412 92.5676C126.018 89.0244 131.408 85.1634 136.744 81.2244C137.457 80.6968 137.781 79.9894 137.487 78.7363C131.791 82.6693 126.288 86.4704 120.79 90.2654C119.957 90.841 119.681 91.5964 120.005 92.5736Z" fill="black"/>
<path fill-rule="evenodd" clip-rule="evenodd" d="M104.756 58.6859C110.097 55.1786 115.331 51.5094 120.469 47.7023C121.315 47.0728 121.962 46.3774 121.471 44.9385C115.655 48.9494 103.784 57.223 103.628 57.5168C103.371 57.9964 102.915 58.5899 103.449 59.0636C103.916 59.4832 104.372 58.9257 104.756 58.6799V58.6859Z" fill="black"/>
<path fill-rule="evenodd" clip-rule="evenodd" d="M106.733 81.7912C108.16 78.7455 112.812 79.8307 113.154 75.8318C112.087 76.1136 111.11 75.9697 110.102 75.6999C106.919 74.8365 104.994 76.4133 104.898 79.9026C105.84 79.357 106.331 77.6424 107.968 78.7935C107.686 79.2012 107.416 79.5669 107.177 79.9506C106.937 80.3283 106.517 80.6401 106.733 81.7912Z" fill="black"/>
<path fill-rule="evenodd" clip-rule="evenodd" d="M129.022 51.4764C129.022 51.4764 129.04 51.4704 129.052 51.4644C129.052 51.4584 129.052 51.4464 129.064 51.4404L129.028 51.4764H129.022Z" fill="black"/>
<path fill-rule="evenodd" clip-rule="evenodd" d="M114.834 55.2697C114.834 55.2697 114.192 55.5155 113.833 55.7553C112.568 56.8524 111.62 58.1295 111.632 59.9041C111.644 60.8454 112.004 61.5288 113.035 61.7147C114.306 61.9665 114.816 60.5576 114.816 60.5576C114.816 60.5576 115.38 59.2026 115.038 58.3933C114.312 58.711 114.246 60.078 113.209 59.3465C111.92 57.7997 114.834 55.2637 114.834 55.2637V55.2697Z" fill="black"/>
<path fill-rule="evenodd" clip-rule="evenodd" d="M153.703 89.7459C150.706 89.0505 147.792 88.1392 145.1 86.3346C146.978 85.3513 148.871 84.9796 150.778 85.2194C155.61 85.831 157.798 83.8345 157.642 78.9543C157.618 78.3308 157.055 74.5837 157.87 73.3486C158.434 72.4973 156.875 69.4097 155.904 69.2418C155.718 69.2058 155.394 69.3257 155.322 69.4756C154.812 70.4888 153.757 71.4241 154.219 72.6472C154.974 74.6376 155.124 76.724 155.46 78.7804C155.628 79.7996 156.335 81.1186 155.334 81.8021C154.105 82.6474 152.54 83.151 151.035 82.1558C151.659 80.9268 152.402 79.8116 152.816 78.5826C153.457 76.676 151.971 75.8007 150.7 74.8834C150.004 74.3858 149.381 74.158 148.685 74.9434C147.126 76.706 145.933 78.8044 146.509 81.0647C146.97 82.8812 146.203 83.157 144.974 83.6726C143.025 84.494 140.753 84.8417 139.776 87.2039C139.374 88.1812 139.26 88.6488 140.483 89.0025C143.493 89.8838 146.461 90.9091 149.459 91.8803C148.997 92.8036 132.492 97.2941 124.566 96.7485C116.916 96.2209 110.8 92.216 110.83 83.7506C110.83 83.3849 111.046 82.9052 110.627 82.7014C110.153 82.4676 109.763 82.7973 109.391 83.1091C108.432 83.9065 108.414 85.1895 107.743 86.1487C106.526 87.8814 105.698 87.9593 104.277 86.3885C103.99 86.0708 103.918 85.5072 103.18 85.4772C102.863 86.7543 102.263 87.8934 103.036 89.3562C104.403 91.9403 103.978 93.2532 101.508 94.7941C97.9223 97.0303 93.9534 98.3553 89.9365 99.5424C87.5983 100.232 85.2241 100.807 82.856 101.437C83.8872 101.875 84.8644 101.881 85.8177 102.078C92.0289 103.397 97.2269 101.017 102.173 97.6718C103.372 96.8565 104.307 95.6694 104.571 94.3264C105.111 91.5805 106.879 89.7639 108.84 87.8634C110.656 96.0471 116.388 99.0208 124.074 99.6683C129.692 100.142 135.046 98.9668 140.364 97.498C146.491 95.8013 152.528 93.559 159.009 94.1106C161.102 94.2904 162.025 93.565 162.552 91.7304C159.603 91.0769 156.647 90.4414 153.709 89.7579L153.703 89.7459ZM148.943 77.9351C149.956 78.043 150.334 79.0202 150.807 79.7577C150.772 80.645 150.124 81.2205 149.536 81.1606C148.607 81.0647 148.343 80.0874 148.265 79.266C148.217 78.7564 147.924 77.8272 148.943 77.9351Z" fill="black"/>
<path fill-rule="evenodd" clip-rule="evenodd" d="M117.878 80.5402C117.878 80.5402 117.242 80.786 116.877 81.0258C115.612 82.1289 114.664 83.406 114.676 85.1746C114.676 86.1159 115.048 86.8053 116.079 86.9852C117.35 87.237 117.854 85.8281 117.854 85.8281C117.854 85.8281 118.423 84.4731 118.082 83.6638C117.356 83.9815 117.29 85.3485 116.253 84.617C114.964 83.0702 117.878 80.5342 117.878 80.5342V80.5402Z" fill="black"/>
<path fill-rule="evenodd" clip-rule="evenodd" d="M94.0387 55.9235L96.8385 58.0458L98.0976 55.3L95.2737 53.1836L94.0027 55.6957L91.2868 53.6512L89.9438 56.3192L92.8516 58.5135L94.0387 55.9235Z" fill="black"/>
<path fill-rule="evenodd" clip-rule="evenodd" d="M95.8515 76.1756L98.6514 78.2919L99.9044 75.552L97.0806 73.4297L95.8216 75.9477L93.0937 73.8973L91.7627 76.5653L94.6645 78.7596L95.8515 76.1756Z" fill="black"/>
<path fill-rule="evenodd" clip-rule="evenodd" d="M109.009 98.0474L106.281 96.0029L104.95 98.6709L107.852 100.865L109.033 98.2752L111.839 100.398L113.092 97.6517L110.268 95.5293L109.009 98.0474Z" fill="black"/>
<path fill-rule="evenodd" clip-rule="evenodd" d="M144.01 100.496L146.918 102.702L148.171 99.9504L145.347 97.834L144.01 100.496Z" fill="black"/>
<path fill-rule="evenodd" clip-rule="evenodd" d="M142.739 73.826L145.641 76.0263L146.9 73.2804L144.076 71.1641L142.739 73.826Z" fill="black"/>
<path fill-rule="evenodd" clip-rule="evenodd" d="M117.875 56.4663C119.116 56.814 119.997 56.4003 120.884 55.9566C122.617 55.0873 123.954 53.7264 125.333 52.4074C125.83 51.9338 126.052 50.8246 127.209 51.4961C127.521 51.676 128.031 51.0344 127.857 50.7347C127.239 49.6735 127.983 48.8341 128.133 47.8929C128.193 47.5152 128.229 47.0835 127.797 46.8437C127.395 46.6219 127.035 46.7598 126.712 47.0116C125.764 47.749 125.117 48.7142 125.459 49.9073C125.674 50.6687 125.405 51.0105 124.961 51.4601C122.947 53.4985 120.5 54.9434 117.881 56.4543L117.875 56.4663ZM127.083 47.8389C127.083 47.8389 127.923 48.5464 126.376 49.074C126.376 49.074 126.016 48.3725 127.083 47.8389Z" fill="black"/>
<path fill-rule="evenodd" clip-rule="evenodd" d="M149.011 58.2865C150.714 58.7662 151.937 58.1966 153.154 57.5851C155.546 56.386 157.386 54.5154 159.287 52.6928C159.97 52.0393 160.27 50.5105 161.871 51.4398C162.297 51.6856 163.01 50.8103 162.764 50.3906C161.913 48.9278 162.95 47.7647 163.148 46.4756C163.226 45.9541 163.274 45.3605 162.68 45.0308C162.123 44.725 161.625 44.9168 161.181 45.2646C159.874 46.2838 158.981 47.6088 159.455 49.2635C159.755 50.3067 159.377 50.7863 158.765 51.4098C155.983 54.2217 152.602 56.2181 149.005 58.2925L149.011 58.2865ZM161.913 46.1639C161.913 46.1639 163.058 47.1231 160.954 47.8426C160.954 47.8426 160.48 46.8893 161.913 46.1639Z" fill="black"/>
<path fill-rule="evenodd" clip-rule="evenodd" d="M148.317 59.6953C145.685 58.5802 142.789 59.8452 141.692 62.3273C141.38 63.0407 143.766 64.6535 145.499 63.0168C146.02 62.4832 146.614 62.5551 147.219 62.8009C148.772 63.4304 150.319 64.0659 152.052 64.7794C150.475 65.355 149.084 65.8226 147.723 66.3682C145.643 67.2015 143.898 66.6979 142.471 65.0672C139.216 61.344 136.686 57.0334 132.89 53.616C138.364 50.9121 143.616 48.46 149 46.3017C150.427 45.7321 151.944 45.3244 153.443 44.9527C154.18 44.7669 155.115 44.6649 155.565 45.4683C155.991 46.2237 155.223 46.7513 154.798 47.2369C153.61 48.5739 150.655 51.8294 150.421 52.1651C151.086 52.4289 156.326 48.1183 157.256 45.1386C157.921 43.0102 157.304 41.997 155.097 41.8711C153.461 41.7752 151.89 42.1948 150.361 42.7944C143.766 45.3784 133.058 49.8509 129.059 51.4577C128.01 53.9997 129.227 55.4386 131.254 56.9435C133.862 58.874 136.134 61.2721 137.483 64.3357C137.789 65.0312 138.586 65.9365 137.339 66.4161C136.44 66.7579 135.373 67.5313 134.551 66.0384C133.862 64.7974 132.705 64.012 131.38 63.4244C130.408 62.9988 129.611 63.2026 129.137 63.97C128.106 65.6787 127.489 67.7171 128.334 69.5037C129.059 71.0326 132.747 70.463 133.484 70.3731L133.28 70.5889C133.28 70.5889 133.268 70.5949 133.262 70.6009C130.378 73.9883 126.613 75.7929 122.321 76.5363C121.056 76.7581 119.827 76.0807 119.341 74.7617C118.867 73.4607 119.97 69.2759 121.559 67.9689C122.908 68.4006 123.795 67.2015 123.795 67.2015C123.843 67.1476 123.891 67.0936 123.927 67.0516C125.246 65.3729 125.462 62.4592 124.431 60.6426C123.22 58.5082 120.924 58.2325 119.539 60.163C118.717 61.3081 117.872 62.3633 116.895 63.4005C111.901 68.6944 106.031 68.6944 101.007 63.1547C98.6389 60.5407 96.2527 60.5706 94.0464 63.3285C93.381 64.1679 92.9613 65.1991 92.3497 66.0924C91.7742 66.9437 91.5284 68.4306 90.1854 68.2028C88.8245 67.9689 88.4228 66.554 88.087 65.3729C87.8352 64.4856 88.0391 63.5503 88.2309 62.6151C88.4108 61.7457 89.1362 60.9544 88.7285 59.9531C86.4743 62.747 86.0306 67.1356 87.7213 69.6956C89.0763 71.752 90.779 71.8359 92.1219 69.8515C92.7694 68.8922 93.279 67.837 93.8786 66.8418C96.0369 63.2806 97.158 63.1786 99.9279 66.2842C103.765 70.5889 109.7 71.3563 114.437 68.1428C115.21 67.6212 115.983 67.0756 116.649 66.4341C117.782 65.343 118.687 66.2543 119.575 66.7339C120.81 67.4054 117.261 72.8911 117.404 75.3972C117.536 77.7114 118.963 79.2222 121.146 79.3961C125.624 79.7558 133.436 74.8097 135.109 70.487C135.319 69.9594 135.534 69.6956 136.056 69.6836C138.712 69.6416 140.181 68.4246 139.797 65.1451C140.588 66.0144 141.008 66.4521 141.41 66.9137C144.222 70.1512 144.755 70.2472 148.736 68.4785C152.214 66.9317 155.901 66.4521 159.66 66.8178C161.764 67.0217 163.065 66.3862 163.605 64.1439C158.263 63.4484 153.239 61.7697 148.317 59.6893V59.6953ZM129.515 66.9018C129.893 66.554 130.229 66.3262 130.528 66.1883C130.732 66.0984 130.918 66.0504 131.092 66.0324C131.176 66.0264 131.26 66.0324 131.344 66.0324C131.506 66.0504 131.655 66.1044 131.811 66.1823C131.955 66.2603 132.099 66.3622 132.237 66.4881C132.303 66.548 132.375 66.614 132.441 66.6859C132.573 66.8238 132.711 66.9797 132.842 67.1476C133.046 67.3934 133.25 67.6632 133.472 67.927C131.895 67.9569 130.876 67.3874 129.521 66.8958L129.515 66.9018ZM119.395 62.8309C119.773 62.4832 120.108 62.2553 120.408 62.1175C120.612 62.0275 120.798 61.9796 120.972 61.9616C121.056 61.9556 121.14 61.9616 121.223 61.9616C121.385 61.9796 121.541 62.0335 121.691 62.1115C121.835 62.1894 121.979 62.2913 122.117 62.4172C122.183 62.4772 122.249 62.5431 122.321 62.6151C122.453 62.753 122.59 62.9088 122.722 63.0767C122.926 63.3225 123.13 63.5923 123.352 63.8561C121.781 63.8861 120.756 63.3165 119.401 62.8249L119.395 62.8309Z" fill="black"/>
<path fill-rule="evenodd" clip-rule="evenodd" d="M97.4499 87.4072C96.065 86.6218 96.3588 86.2082 97.2461 85.2909C99.3924 83.0666 101.419 80.7344 103.643 78.2943C102.54 77.8566 102.21 78.3542 101.827 78.7139C99.7941 80.6385 97.6657 82.479 95.7832 84.5414C94.716 85.7105 94.2064 85.2909 93.6069 84.3076C93.3731 83.9179 93.3611 83.3903 93.1153 83.0126C92.4797 82.0474 91.3526 81.7716 90.3754 81.4179C89.7878 81.208 89.6679 82.1433 89.5001 82.5929C89.1343 83.5762 89.1463 84.4275 90.2075 85.2129C90.5432 85.4647 90.849 85.7225 91.1248 85.9923H91.1368C91.2147 86.0823 91.2927 86.1602 91.3706 86.2441L93.3671 88.2946L91.4006 91.5201C90.7591 92.8091 90.6871 94.3439 92.3179 95.3571C94.2904 96.5861 97.6058 95.5969 98.8588 93.4925C100.376 90.9445 99.9979 88.8581 97.4499 87.4072ZM94.764 93.1808C94.0805 93.2647 93.3191 93.2167 93.0613 92.4194C92.8694 91.8318 93.0313 91.2982 93.3071 90.8186C93.3071 90.8186 94.5661 86.9696 97.8756 92.3834C96.3827 93.2108 95.7832 93.0489 94.764 93.1808Z" fill="black"/>
</g>
<defs>
<clipPath id="clip0_1185_976">
<rect width="250" height="250" fill="white"/>
</clipPath>
</defs>
</svg>
