<?xml version="1.0" encoding="UTF-8" standalone="no" ?>
<!DOCTYPE svg PUBLIC "-//W3C//DTD SVG 1.1//EN" "http://www.w3.org/Graphics/SVG/1.1/DTD/svg11.dtd">
<svg xmlns="http://www.w3.org/2000/svg" xmlns:xlink="http://www.w3.org/1999/xlink" version="1.1" width="1080" height="1080" viewBox="0 0 1080 1080" xml:space="preserve">
<desc>Created with Fabric.js 5.2.4</desc>
<defs>
</defs>
<g transform="matrix(1 0 0 1 540 540)" id="1807de2a-cf94-46c2-9be8-9e8fa8b3c260"  >
<rect style="stroke: none; stroke-width: 1; stroke-dasharray: none; stroke-linecap: butt; stroke-dashoffset: 0; stroke-linejoin: miter; stroke-miterlimit: 4; fill: rgb(255,255,255); fill-rule: nonzero; opacity: 1; visibility: hidden;" vector-effect="non-scaling-stroke"  x="-540" y="-540" rx="0" ry="0" width="1080" height="1080" />
</g>
<g transform="matrix(Infinity NaN NaN Infinity 0 0)" id="b501599d-7b1d-4153-8fd6-f581a795312e"  >
</g>
<g transform="matrix(2.59 0 0 2.59 536.19 536.13)"  >
<path style="stroke: none; stroke-width: 1; stroke-dasharray: none; stroke-linecap: butt; stroke-dashoffset: 0; stroke-linejoin: miter; stroke-miterlimit: 4; fill: rgb(255,255,255); fill-rule: nonzero; opacity: 1;" vector-effect="non-scaling-stroke"  transform=" translate(-168.32, -209.78)" d="M 103.72 343.94 C 51.769999999999996 292.58 37.510000000000005 228.42000000000002 31.319999999999993 184.81 L 29.669999999999995 171.7 C 26.599999999999994 143.82 26.869999999999994 93.00999999999999 27.059999999999995 76.19999999999999 L 29.279999999999994 75.89999999999999 C 83.49 68.55 128.71 53.46999999999999 167.49 29.779999999999994 C 205.45000000000002 52.949999999999996 252.51 68.46 307.38 75.89999999999999 L 309.61 76.19999999999999 C 309.77000000000004 92.51999999999998 310.02000000000004 144.65999999999997 306.84000000000003 172.79999999999998 L 304.88000000000005 187.77999999999997 C 294.66 255.90999999999997 271.80000000000007 305.53 232.96000000000004 343.93999999999994 C 213.49000000000004 363.18999999999994 178.61000000000004 383.86999999999995 168.34000000000003 389.78 C 159.39000000000004 384.61999999999995 123.27000000000004 363.28999999999996 103.72000000000003 343.93999999999994 Z" stroke-linecap="round" />
</g>
<g transform="matrix(2.59 0 0 2.59 799.17 484.51)"  >
<path style="stroke: none; stroke-width: 1; stroke-dasharray: none; stroke-linecap: butt; stroke-dashoffset: 0; stroke-linejoin: miter; stroke-miterlimit: 4; fill: rgb(179,32,36); fill-rule: nonzero; opacity: 1;" vector-effect="non-scaling-stroke"  transform=" translate(-269.93, -189.83)" d="M 286.42 91.49 L 283.39000000000004 91.08 C 272.27000000000004 89.55 261.54 87.61 251.24000000000004 85.27 C 251.03000000000003 85.22 250.80000000000004 85.17999999999999 250.60000000000005 85.13 L 250.60000000000005 85.13 C 250.60000000000005 114.28 250.60000000000005 186.75 250.60000000000005 186.75 L 250.51000000000005 161.22 L 250.51000000000005 294.53999999999996 C 254.55000000000004 288.21999999999997 258.18000000000006 281.78999999999996 261.39000000000004 275.27 C 261.70000000000005 274.65999999999997 261.98 274.04999999999995 262.28000000000003 273.43 C 263.22 271.49 264.12 269.53000000000003 264.99 267.58 C 265.74 265.89 266.48 264.2 267.19 262.47999999999996 C 267.54 261.62999999999994 267.88 260.78 268.21999999999997 259.92999999999995 C 269.11999999999995 257.68999999999994 269.98999999999995 255.43999999999994 270.83 253.14999999999995 C 270.96 252.78999999999994 271.09 252.41999999999996 271.21999999999997 252.05999999999995 C 272.19 249.32999999999996 273.13 246.56999999999994 274.03999999999996 243.75999999999993 C 274.03999999999996 243.73999999999992 274.03999999999996 243.72999999999993 274.03999999999996 243.70999999999992 C 277.91999999999996 231.56999999999994 281.05999999999995 218.56999999999994 283.54999999999995 204.62999999999994 C 283.56999999999994 204.52999999999994 283.59 204.42999999999995 283.60999999999996 204.33999999999995 C 284.21999999999997 200.88999999999996 284.78999999999996 197.38999999999996 285.31999999999994 193.81999999999994 L 286.9599999999999 181.22999999999993 C 287.2899999999999 178.14999999999992 288.30999999999995 163.22999999999993 288.30999999999995 163.22999999999993 C 289.8399999999999 132.81999999999994 289.22999999999996 91.86999999999993 289.22999999999996 91.86999999999993 L 286.42999999999995 91.47999999999993 Z" stroke-linecap="round" />
</g>
<g transform="matrix(2.59 0 0 2.59 269.34 481.18)"  >
<path style="stroke: none; stroke-width: 1; stroke-dasharray: none; stroke-linecap: butt; stroke-dashoffset: 0; stroke-linejoin: miter; stroke-miterlimit: 4; fill: rgb(179,32,36); fill-rule: nonzero; opacity: 1;" vector-effect="non-scaling-stroke"  transform=" translate(-65.23, -188.55)" d="M 49.63 91.49 L 46.82 91.88 C 46.82 91.88 46.19 133.74 47.74 163.89 L 48.120000000000005 170.51999999999998 C 48.36000000000001 174.02999999999997 48.63 177.29999999999998 48.95 180.20999999999998 L 50.31 191.23 C 50.34 191.39999999999998 50.370000000000005 191.57999999999998 50.39 191.75 C 50.57 192.95 50.730000000000004 194.15 50.910000000000004 195.35 C 50.93000000000001 195.46 50.95 195.57 50.970000000000006 195.68 C 55.25000000000001 223.97 62.910000000000004 253.97 78.17 282.14 C 78.23 282.26 78.29 282.38 78.36 282.5 C 78.92999999999999 283.56 79.54 284.61 80.13 285.66 C 80.39 286.13000000000005 80.66 286.6 80.92999999999999 287.06 C 81.41 287.87 81.88999999999999 288.69 82.38 289.5 C 82.78999999999999 290.19 83.19999999999999 290.88 83.61999999999999 291.57 C 83.64999999999999 291.61 83.67999999999999 291.65999999999997 83.69999999999999 291.7 L 83.69999999999999 170.26 C 83.69999999999999 170.26 83.74999999999999 107.44999999999999 83.75999999999999 85.39999999999999 C 73.79999999999998 87.66 63.46999999999999 89.57 52.639999999999986 91.05999999999999 L 49.62999999999999 91.46999999999998 Z" stroke-linecap="round" />
</g>
<g transform="matrix(2.59 0 0 2.59 535.36 534.11)"  >
<path style="stroke: none; stroke-width: 1; stroke-dasharray: none; stroke-linecap: butt; stroke-dashoffset: 0; stroke-linejoin: miter; stroke-miterlimit: 4; fill: rgb(0,0,0); fill-rule: nonzero; opacity: 1;" vector-effect="non-scaling-stroke"  transform=" translate(-168, -209)" d="M 176.95 404.92 C 184.92 400.39000000000004 224.13 377.62 246.21999999999997 355.79 C 287.7 314.77000000000004 312.03 262.35 322.78999999999996 190.63000000000002 L 324.77 175.56000000000003 C 328.52 142.33000000000004 327.68 80.13000000000002 327.57 73.16000000000003 L 327.37 59.800000000000026 L 307.14 57.060000000000024 C 255.41 50.050000000000026 211.43 35.450000000000024 176.47 13.690000000000026 L 167.16 7.870000000000026 L 157.9 13.680000000000025 C 122.1 35.94 79.9 50.13 28.85 57.05 L 8.64 59.79 L 8.43 73.15 C 8.33 80.08000000000001 7.4799999999999995 141.77 11.07 174.39 L 12.72 187.57 C 19.23 233.51999999999998 34.32 300.95 89.78 355.78999999999996 C 111.99000000000001 377.76 151.47 400.63 159.17000000000002 404.98999999999995 L 167.98000000000002 410.12999999999994 L 176.94000000000003 404.91999999999996 Z M 104.65999999999998 340.75 C 53.73999999999998 290.40999999999997 39.75999999999998 227.51999999999998 33.68999999999998 184.77 L 32.069999999999986 171.92000000000002 C 29.059999999999988 144.59000000000003 29.319999999999986 94.79000000000002 29.509999999999987 78.30000000000001 L 31.689999999999987 78.01 C 84.82999999999998 70.81 129.16 56.02000000000001 167.17 32.800000000000004 C 204.38 55.510000000000005 250.51 70.72 304.29999999999995 78.01 L 306.48999999999995 78.30000000000001 C 306.65 94.29 306.88999999999993 145.41000000000003 303.7699999999999 172.99 L 301.8399999999999 187.68 C 291.81999999999994 254.46 269.4199999999999 303.1 231.33999999999992 340.75 C 212.24999999999991 359.62 178.0699999999999 379.89 167.99999999999991 385.68 C 159.2299999999999 380.62 123.82999999999991 359.71000000000004 104.65999999999991 340.75 Z" stroke-linecap="round" />
</g>
<g transform="matrix(2.59 0 0 2.59 569.05 607.15)"  >
<path style="stroke: none; stroke-width: 1; stroke-dasharray: none; stroke-linecap: butt; stroke-dashoffset: 0; stroke-linejoin: miter; stroke-miterlimit: 4; fill: rgb(0,0,0); fill-rule: nonzero; opacity: 1;" vector-effect="non-scaling-stroke"  transform=" translate(-181.02, -237.21)" d="M 193 226.98 C 191.27 228.29 177.74 238.35 167.32999999999998 246.08999999999997 C 168.02999999999997 246.60999999999999 168.7 247.09999999999997 169.35999999999999 247.58999999999997 L 194.71999999999997 228.45999999999998 L 193.49999999999997 226.83999999999997 C 193.24999999999997 226.87999999999997 193.00999999999996 226.96999999999997 193.00999999999996 226.96999999999997 Z" stroke-linecap="round" />
</g>
<g transform="matrix(2.59 0 0 2.59 509.02 652.93)"  >
<path style="stroke: none; stroke-width: 1; stroke-dasharray: none; stroke-linecap: butt; stroke-dashoffset: 0; stroke-linejoin: miter; stroke-miterlimit: 4; fill: rgb(0,0,0); fill-rule: nonzero; opacity: 1;" vector-effect="non-scaling-stroke"  transform=" translate(-157.83, -254.91)" d="M 159.95 254.69 C 159.32 254.18 158.64 253.64 157.94 253.07 C 156.97 253.79999999999998 156.18 254.38 155.71 254.73 L 157.23000000000002 256.74 L 159.95000000000002 254.69 Z" stroke-linecap="round" />
</g>
<g transform="matrix(2.59 0 0 2.59 652.58 559.83)"  >
<polygon style="stroke: none; stroke-width: 1; stroke-dasharray: none; stroke-linecap: butt; stroke-dashoffset: 0; stroke-linejoin: miter; stroke-miterlimit: 4; fill: rgb(0,0,0); fill-rule: nonzero; opacity: 1;" vector-effect="non-scaling-stroke"  points="13.32,-13.37 13.32,-13.37 -16.06,8.53 -12.39,13.37 16.05,-9.75 13.32,-13.37 " />
</g>
<g transform="matrix(2.59 0 0 2.59 439.09 716.92)"  >
<path style="stroke: none; stroke-width: 1; stroke-dasharray: none; stroke-linecap: butt; stroke-dashoffset: 0; stroke-linejoin: miter; stroke-miterlimit: 4; fill: rgb(0,0,0); fill-rule: nonzero; opacity: 1;" vector-effect="non-scaling-stroke"  transform=" translate(-130.81, -279.63)" d="M 130.53 276.54 L 128.26 278.26000000000005 L 129.56 280.15000000000003 L 129.91 280.40000000000003 L 130.25 280.65000000000003 L 130.25 280.65000000000003 C 130.25 280.65000000000003 130.63 280.91 130.63 280.91 L 130.65 280.91 C 130.65 280.91 130.65 280.92 130.65 280.92 L 130.65 280.92 C 130.65 280.92 131.02 281.2 131.02 281.2 L 133.09 282.71999999999997 C 132.64000000000001 281.92999999999995 132.75 280.96 133.37 280.28999999999996 L 130.52 276.53 Z" stroke-linecap="round" />
</g>
<g transform="matrix(2.59 0 0 2.59 454.14 725.91)"  >
<path style="stroke: none; stroke-width: 1; stroke-dasharray: none; stroke-linecap: butt; stroke-dashoffset: 0; stroke-linejoin: miter; stroke-miterlimit: 4; fill: rgb(0,0,0); fill-rule: nonzero; opacity: 1;" vector-effect="non-scaling-stroke"  transform=" translate(-136.63, -283.1)" d="M 138.78 283.1 L 138.59 282.95000000000005 L 138.73 282.84000000000003 L 136.67 280.68 C 137.19 281.58 137.01 282.74 136.16 283.39 C 135.66 283.76 135.04999999999998 283.87 134.48 283.76 L 136.88 285.52 L 138.78 283.10999999999996 Z" stroke-linecap="round" />
</g>
<g transform="matrix(2.59 0 0 2.59 451.46 705.1)"  >
<path style="stroke: none; stroke-width: 1; stroke-dasharray: none; stroke-linecap: butt; stroke-dashoffset: 0; stroke-linejoin: miter; stroke-miterlimit: 4; fill: rgb(0,0,0); fill-rule: nonzero; opacity: 1;" vector-effect="non-scaling-stroke"  transform=" translate(-135.6, -275.06)" d="M 140.48 271.12 L 139.60999999999999 269.98 L 132.17 275.62 L 131.76 275.92 L 131.63 275.71000000000004 L 130.71 276.41 L 133.52 280.14000000000004 C 133.52 280.14000000000004 133.58 280.07000000000005 133.61 280.04 C 134.3 279.52000000000004 135.21 279.49 135.92000000000002 279.89000000000004 L 133.45000000000002 277.29 L 133.10000000000002 276.91 L 133.51000000000002 276.59000000000003 L 140.48000000000002 271.12 Z" stroke-linecap="round" />
</g>
<g transform="matrix(2.59 0 0 2.59 449.47 695.67)"  >
<polygon style="stroke: none; stroke-width: 1; stroke-dasharray: none; stroke-linecap: butt; stroke-dashoffset: 0; stroke-linejoin: miter; stroke-miterlimit: 4; fill: rgb(0,0,0); fill-rule: nonzero; opacity: 1;" vector-effect="non-scaling-stroke"  points="-1.44,-0.47 -1.66,-0.77 -3.01,0.34 -4.07,-0.56 -4.5,0.14 -3.51,1.19 -3.95,1.63 -3.88,2.33 -3.07,3.6 -2.94,3.81 -2.94,3.81 4.51,-1.83 4.51,-1.83 4.37,-2.02 3,-3.81 -1.44,-0.47 " />
</g>
<g transform="matrix(2.59 0 0 2.59 693.54 527.37)"  >
<path style="stroke: none; stroke-width: 1; stroke-dasharray: none; stroke-linecap: butt; stroke-dashoffset: 0; stroke-linejoin: miter; stroke-miterlimit: 4; fill: rgb(0,0,0); fill-rule: nonzero; opacity: 1;" vector-effect="non-scaling-stroke"  transform=" translate(-229.12, -206.39)" d="M 230.89 207.64 C 230.95999999999998 207.70999999999998 231.01 207.73 231.07 207.76 L 228.38 204.26999999999998 L 227.17 205.15999999999997 L 229.70999999999998 208.51999999999998 L 230.89 207.63 Z" stroke-linecap="round" />
</g>
<g transform="matrix(2.59 0 0 2.59 710.22 503.1)"  >
<path style="stroke: none; stroke-width: 1; stroke-dasharray: none; stroke-linecap: butt; stroke-dashoffset: 0; stroke-linejoin: miter; stroke-miterlimit: 4; fill: rgb(0,0,0); fill-rule: nonzero; opacity: 1;" vector-effect="non-scaling-stroke"  transform=" translate(-235.57, -197.01)" d="M 233.25 197 L 233.45 196.85 L 233.73999999999998 197.23 L 234.76 198.53 L 234.85999999999999 198.67 L 234.92999999999998 198.76 L 235.23 199.14999999999998 L 236.47 200.74999999999997 L 236.47 200.74999999999997 C 237.05 200.31999999999996 238.12 199.49999999999997 238.57 199.16999999999996 C 238.88 198.92999999999995 238.9 198.58999999999995 238.85 198.30999999999995 C 238.85 198.30999999999995 238.85 198.30999999999995 238.85 198.30999999999995 L 238.71 198.11999999999995 L 237.16 196.03999999999994 L 237.02 195.84999999999994 L 235.85000000000002 194.27999999999994 C 234.96000000000004 193.25999999999993 234.24 192.82999999999996 232.84000000000003 193.88999999999996 C 232.08000000000004 194.46999999999997 232.19000000000003 195.32999999999996 232.48000000000002 196.05999999999995 L 233.23000000000002 197.01999999999995 Z M 235.16 194.45 C 235.57 194.98999999999998 235.46 195.76 234.92 196.17999999999998 C 234.38 196.58999999999997 233.6 196.48999999999998 233.19 195.93999999999997 C 232.78 195.39999999999998 232.88 194.62999999999997 233.42 194.20999999999998 C 233.97 193.79999999999998 234.75 193.89999999999998 235.16 194.45 Z" stroke-linecap="round" />
</g>
<g transform="matrix(2.59 0 0 2.59 687.74 519.89)"  >
<polygon style="stroke: none; stroke-width: 1; stroke-dasharray: none; stroke-linecap: butt; stroke-dashoffset: 0; stroke-linejoin: miter; stroke-miterlimit: 4; fill: rgb(0,0,0); fill-rule: nonzero; opacity: 1;" vector-effect="non-scaling-stroke"  points="0,1.28 0.01,1.28 1.2,0.38 1.19,0.38 1.04,0.19 -0.09,-1.28 -1.2,-0.31 -0.14,1.09 0,1.28 " />
</g>
<g transform="matrix(2.59 0 0 2.59 469.39 727.76)"  >
<path style="stroke: none; stroke-width: 1; stroke-dasharray: none; stroke-linecap: butt; stroke-dashoffset: 0; stroke-linejoin: miter; stroke-miterlimit: 4; fill: rgb(0,0,0); fill-rule: nonzero; opacity: 1;" vector-effect="non-scaling-stroke"  transform=" translate(-142.52, -283.81)" d="M 138.07 286.44 C 138.34 286.86 138.84 287.62 139.6 288.23 C 140.26999999999998 288.78000000000003 141.14 289.19 142.22 289.09000000000003 C 142.91 289.02000000000004 143.68 288.77000000000004 144.54 288.20000000000005 C 144.73 288.08000000000004 144.89 287.96000000000004 145.06 287.83000000000004 C 146.94 286.41 147.56 284.78000000000003 147.77 283.66 L 147.42000000000002 282.95000000000005 L 147.18 282.44000000000005 L 146.9 281.84000000000003 L 145.32 278.52000000000004 L 144.91 278.72 L 139.57999999999998 283.07000000000005 L 139.23 283.35 L 139.20999999999998 283.33000000000004 L 139.18999999999997 283.33000000000004 C 139.18999999999997 283.33000000000004 137.26999999999998 285.78000000000003 137.26999999999998 285.78000000000003 L 137.26999999999998 285.78000000000003 C 137.26999999999998 285.78000000000003 137.39 285.88000000000005 137.39 285.88000000000005 L 137.35 285.9200000000001 L 138.04999999999998 286.44000000000005 Z M 139.98 287.95 C 138.63 286.3 139.47 284.63 139.47 284.63 C 139.2 285.4 139.7 286.82 139.7 286.82 C 141.06 288.75 142.20999999999998 287.88 142.20999999999998 287.88 L 141.82999999999998 287.88 C 141.45 287.88 139.74999999999997 286.51 140.26 285.55 C 140.76999999999998 284.59000000000003 141.5 282.42 141.5 282.42 C 141.5 282.42 141.81 282.1 142.28 281.75 C 143.27 281 145 280.08 146.22 281.61 C 148.02 283.86 145.7 286.2 144.8 287.16 C 144.66000000000003 287.32000000000005 144.47 287.49 144.25 287.66 C 143.1 288.52000000000004 141.1 289.34000000000003 139.98 287.96000000000004 Z" stroke-linecap="round" />
</g>
<g transform="matrix(2.59 0 0 2.59 449.67 722.32)"  >
<path style="stroke: none; stroke-width: 1; stroke-dasharray: none; stroke-linecap: butt; stroke-dashoffset: 0; stroke-linejoin: miter; stroke-miterlimit: 4; fill: rgb(0,0,0); fill-rule: nonzero; opacity: 1;" vector-effect="non-scaling-stroke"  transform=" translate(-134.9, -281.72)" d="M 133.34 282.17 C 133.36 282.24 133.4 282.29 133.42000000000002 282.35 C 133.48000000000002 282.47 133.51000000000002 282.59000000000003 133.59 282.70000000000005 C 134.13 283.4200000000001 135.16 283.56000000000006 135.87 283.02000000000004 C 136.59 282.48 136.74 281.45000000000005 136.19 280.73 C 135.66 280.02000000000004 134.63 279.87 133.91 280.41 C 133.89 280.42 133.88 280.45000000000005 133.85999999999999 280.46000000000004 C 133.76 280.54 133.67999999999998 280.65000000000003 133.60999999999999 280.75000000000006 C 133.54 280.84000000000003 133.48 280.95000000000005 133.42999999999998 281.05000000000007 C 133.39 281.12000000000006 133.36999999999998 281.19000000000005 133.35999999999999 281.2700000000001 C 133.32 281.3800000000001 133.29 281.4900000000001 133.27999999999997 281.6000000000001 C 133.27999999999997 281.68000000000006 133.27999999999997 281.75000000000006 133.27999999999997 281.8200000000001 C 133.27999999999997 281.9400000000001 133.27999999999997 282.0600000000001 133.32999999999998 282.17000000000013 Z" stroke-linecap="round" />
</g>
<g transform="matrix(2.59 0 0 2.59 646.41 550.27)"  >
<path style="stroke: none; stroke-width: 1; stroke-dasharray: none; stroke-linecap: butt; stroke-dashoffset: 0; stroke-linejoin: miter; stroke-miterlimit: 4; fill: rgb(0,0,0); fill-rule: nonzero; opacity: 1;" vector-effect="non-scaling-stroke"  transform=" translate(-210.91, -215.24)" d="M 196.81 226.89 L 196.95 227.07999999999998 L 196.95999999999998 227.07999999999998 C 196.95999999999998 227.07999999999998 226.33999999999997 205.2 226.33999999999997 205.2 L 226.33999999999997 205.2 C 226.33999999999997 205.2 226.2 205.01 226.2 205.01 L 224.98 203.39999999999998 L 224.76999999999998 203.43999999999997 C 222.55999999999997 205.11999999999998 198.40999999999997 222.96999999999997 195.48 225.12999999999997 L 196.82999999999998 226.89999999999998 Z" stroke-linecap="round" />
</g>
<g transform="matrix(2.59 0 0 2.59 578.31 616.06)"  >
<path style="stroke: none; stroke-width: 1; stroke-dasharray: none; stroke-linecap: butt; stroke-dashoffset: 0; stroke-linejoin: miter; stroke-miterlimit: 4; fill: rgb(0,0,0); fill-rule: nonzero; opacity: 1;" vector-effect="non-scaling-stroke"  transform=" translate(-184.6, -240.66)" d="M 198.08 235.7 C 198.08 235.7 198.76000000000002 235.20999999999998 199.45000000000002 234.72 L 195.14000000000001 229.04 L 195.00000000000003 228.85 L 194.99000000000004 228.85 C 194.99000000000004 228.85 169.75000000000003 247.89 169.75000000000003 247.89 L 169.75000000000003 247.89 C 169.82000000000002 247.94 169.89000000000001 247.98999999999998 169.96000000000004 248.04 C 172.35000000000002 249.82 174.43000000000004 251.35999999999999 175.92000000000004 252.47 C 184.16000000000005 245.81 196.18000000000004 236.09 196.18000000000004 236.09 C 196.64000000000004 236.69 198.08000000000004 235.70000000000002 198.08000000000004 235.70000000000002 Z" stroke-linecap="round" />
</g>
<g transform="matrix(2.59 0 0 2.59 489.25 689.04)"  >
<path style="stroke: none; stroke-width: 1; stroke-dasharray: none; stroke-linecap: butt; stroke-dashoffset: 0; stroke-linejoin: miter; stroke-miterlimit: 4; fill: rgb(0,0,0); fill-rule: nonzero; opacity: 1;" vector-effect="non-scaling-stroke"  transform=" translate(-150.2, -268.85)" d="M 166.58 260.09 C 166.03 259.61999999999995 165.53 259.2 165.10000000000002 258.84999999999997 C 164.60000000000002 258.45 162.88000000000002 257.05999999999995 160.53000000000003 255.15999999999997 C 160.46000000000004 255.10999999999996 160.40000000000003 255.05999999999997 160.33000000000004 255.00999999999996 L 160.33000000000004 255.00999999999996 C 160.33000000000004 255.00999999999996 157.35000000000005 257.26 157.35000000000005 257.26 L 157.35000000000005 257.26 C 157.35000000000005 257.26 157.50000000000006 257.45 157.50000000000006 257.45 L 157.32000000000005 257.58 L 157.11000000000004 257.72999999999996 L 156.48000000000005 258.2 L 156.48000000000005 258.2 L 156.11000000000004 258.49 L 154.04000000000005 260.05 L 153.69000000000005 261.51 L 153.65000000000006 261.67 L 153.52000000000007 261.77000000000004 L 142.87000000000006 270.14000000000004 L 142.51000000000005 270.42 L 142.51000000000005 270.42 L 141.28000000000006 271.38 L 141.15000000000006 271.49 L 141.01000000000008 271.6 L 140.91000000000008 271.68 L 140.7700000000001 271.49 L 140.7700000000001 271.49 C 140.7700000000001 271.49 133.8100000000001 276.95 133.8100000000001 276.95 L 139.1200000000001 282.53 L 139.2800000000001 282.7 L 139.2800000000001 282.7 C 139.2800000000001 282.7 139.2800000000001 282.7 139.2800000000001 282.7 L 139.47000000000008 282.55 L 143.1200000000001 279.58 L 143.07000000000008 279.59999999999997 L 142.1800000000001 280.03 L 142.1800000000001 280.03 C 142.1800000000001 280.03 145.2300000000001 277.54999999999995 145.2300000000001 277.54999999999995 L 147.2600000000001 275.88999999999993 L 147.7300000000001 275.5199999999999 L 147.81000000000012 275.44999999999993 L 152.1000000000001 271.9599999999999 L 152.5400000000001 271.6099999999999 L 152.6400000000001 271.5299999999999 L 156.4400000000001 268.4299999999999 L 156.8900000000001 268.0599999999999 L 157.0000000000001 268.2799999999999 L 157.05000000000013 268.2399999999999 L 157.05000000000013 268.2399999999999 C 157.05000000000013 268.2399999999999 161.36000000000013 264.9099999999999 161.36000000000013 264.9099999999999 C 162.73000000000013 263.5999999999999 164.74000000000012 261.69999999999993 166.58000000000013 260.0899999999999 Z" stroke-linecap="round" />
</g>
<g transform="matrix(2.59 0 0 2.59 708.57 515.69)"  >
<path style="stroke: none; stroke-width: 1; stroke-dasharray: none; stroke-linecap: butt; stroke-dashoffset: 0; stroke-linejoin: miter; stroke-miterlimit: 4; fill: rgb(0,0,0); fill-rule: nonzero; opacity: 1;" vector-effect="non-scaling-stroke"  transform=" translate(-234.93, -201.88)" d="M 234.85 199.42 L 234.82999999999998 199.42 C 234.82999999999998 199.42 234.64 199.55999999999997 234.64 199.55999999999997 L 232.82 200.86999999999998 L 235.44 204.33999999999997 L 235.45 204.33999999999997 C 235.78 204.09999999999997 236.14 203.84999999999997 236.42999999999998 203.62999999999997 C 237.39 202.89999999999998 236.90999999999997 202.12999999999997 236.90999999999997 202.12999999999997 L 236.36999999999998 201.41999999999996 L 236.09999999999997 201.05999999999995 L 236.09999999999997 201.03999999999994 C 236.09999999999997 201.03999999999994 236.09999999999997 201.03999999999994 236.09999999999997 201.03999999999994 L 234.84999999999997 199.42999999999992 Z" stroke-linecap="round" />
</g>
<g transform="matrix(2.59 0 0 2.59 463.4 687.86)"  >
<polygon style="stroke: none; stroke-width: 1; stroke-dasharray: none; stroke-linecap: butt; stroke-dashoffset: 0; stroke-linejoin: miter; stroke-miterlimit: 4; fill: rgb(0,0,0); fill-rule: nonzero; opacity: 1;" vector-effect="non-scaling-stroke"  points="0.02,-2.62 -1.81,-1.24 -1.99,-1.09 -2,-1.09 -0.64,0.71 -0.5,0.9 -0.35,1.09 -0.2,1.28 0.65,2.42 0.8,2.61 0.8,2.62 0.81,2.61 0.99,2.47 2.01,1.66 2,1.66 1.85,1.48 0.72,0.14 0.65,0.07 0.63,-0.04 0.03,-2.19 -0.05,-2.49 0.06,-2.58 0.02,-2.62 " />
</g>
<g transform="matrix(2.59 0 0 2.59 483.99 674.36)"  >
<path style="stroke: none; stroke-width: 1; stroke-dasharray: none; stroke-linecap: butt; stroke-dashoffset: 0; stroke-linejoin: miter; stroke-miterlimit: 4; fill: rgb(0,0,0); fill-rule: nonzero; opacity: 1;" vector-effect="non-scaling-stroke"  transform=" translate(-148.16, -263.19)" d="M 144.08 265.71 C 142.63000000000002 266.81 141.52 265.46999999999997 141.52 265.46999999999997 L 140.89000000000001 265.92999999999995 L 140.69000000000003 266.09 L 140.69000000000003 266.09 C 140.69000000000003 266.09 141.28000000000003 268.23999999999995 141.28000000000003 268.23999999999995 L 142.42000000000002 269.59 L 142.58 269.77 L 142.58 269.77 C 142.58 269.77 142.58 269.77 142.58 269.77 L 142.77 269.62 L 153.23000000000002 261.4 L 153.62 259.78 L 153.65 259.75 L 155.63 258.26 L 155.63 258.26 C 155.63 258.26 155.49 258.06 155.49 258.06 L 154.39000000000001 256.6 L 151.76000000000002 258.75 L 145.19000000000003 263.91 C 145.19000000000003 263.91 145.53000000000003 264.61 144.08 265.70000000000005 Z" stroke-linecap="round" />
</g>
<g transform="matrix(2.59 0 0 2.59 611.9 588.85)"  >
<path style="stroke: none; stroke-width: 1; stroke-dasharray: none; stroke-linecap: butt; stroke-dashoffset: 0; stroke-linejoin: miter; stroke-miterlimit: 4; fill: rgb(0,0,0); fill-rule: nonzero; opacity: 1;" vector-effect="non-scaling-stroke"  transform=" translate(-197.58, -230.14)" d="M 194.28 226.76 L 200.01 234.32999999999998 C 200.25 234.14999999999998 200.47 233.99999999999997 200.60999999999999 233.89 C 200.79999999999998 233.75 200.86999999999998 233.57 200.88 233.39 L 195.26 225.95999999999998 L 194.29 226.76 Z" stroke-linecap="round" />
</g>
<g transform="matrix(2.59 0 0 2.59 698.38 519.6)"  >
<path style="stroke: none; stroke-width: 1; stroke-dasharray: none; stroke-linecap: butt; stroke-dashoffset: 0; stroke-linejoin: miter; stroke-miterlimit: 4; fill: rgb(0,0,0); fill-rule: nonzero; opacity: 1;" vector-effect="non-scaling-stroke"  transform=" translate(-230.99, -203.39)" d="M 228.31 203.42 L 228.46 203.60999999999999 L 228.61 203.79999999999998 L 228.75 203.98999999999998 L 231.61 207.67999999999998 L 231.61 207.67999999999998 C 231.61 207.67999999999998 231.69000000000003 207.62999999999997 231.72000000000003 207.59999999999997 C 231.75000000000003 207.57999999999996 231.77000000000004 207.55999999999997 231.79000000000002 207.52999999999997 C 232.01000000000002 207.32999999999998 232.20000000000002 207.10999999999999 232.20000000000002 207.10999999999999 C 232.20000000000002 207.10999999999999 233.29000000000002 208.17999999999998 234.14000000000001 207.54 C 234.99 206.9 233.89000000000001 205.45 233.89000000000001 205.45 C 233.89000000000001 205.45 234.32000000000002 205.14999999999998 234.85000000000002 204.76999999999998 C 234.91000000000003 204.71999999999997 234.98000000000002 204.67999999999998 235.05 204.63 L 235.05 204.63 C 235.05 204.63 232.42000000000002 201.14 232.42000000000002 201.14 L 232.42000000000002 201.14 C 232.42000000000002 201.14 232.23000000000002 201.27999999999997 232.23000000000002 201.27999999999997 L 231.94000000000003 200.90999999999997 L 231.79000000000002 200.70999999999998 L 231.75000000000003 200.65999999999997 L 230.84000000000003 199.45999999999998 L 230.56000000000003 199.08999999999997 L 230.63000000000002 199.03999999999996 C 230.45000000000002 199.02999999999997 230.28000000000003 199.03999999999996 230.28000000000003 199.03999999999996 L 227.12000000000003 201.50999999999996 L 226.93000000000004 201.65999999999997 L 226.97000000000003 201.70999999999998 L 228.29000000000002 203.40999999999997 Z" stroke-linecap="round" />
</g>
<g transform="matrix(2.59 0 0 2.59 703.31 508.43)"  >
<polygon style="stroke: none; stroke-width: 1; stroke-dasharray: none; stroke-linecap: butt; stroke-dashoffset: 0; stroke-linejoin: miter; stroke-miterlimit: 4; fill: rgb(0,0,0); fill-rule: nonzero; opacity: 1;" vector-effect="non-scaling-stroke"  points="-0.59,1.52 -0.56,1.56 -0.56,1.56 -0.37,1.42 1.45,0.12 1.66,-0.02 1.66,-0.02 1.61,-0.07 1.47,-0.26 0.47,-1.55 0.45,-1.55 0.27,-1.41 -1.47,-0.04 -1.66,0.11 -1.66,0.12 -0.74,1.33 -0.59,1.52 " />
</g>
<g transform="matrix(2.59 0 0 2.59 492.97 707.99)"  >
<path style="stroke: none; stroke-width: 1; stroke-dasharray: none; stroke-linecap: butt; stroke-dashoffset: 0; stroke-linejoin: miter; stroke-miterlimit: 4; fill: rgb(0,0,0); fill-rule: nonzero; opacity: 1;" vector-effect="non-scaling-stroke"  transform=" translate(-151.63, -276.17)" d="M 147.85 282.57 L 147.85 282.57 C 147.85 282.57 147.85 282.59 147.85 282.59 C 147.89 282.78 148.01 283.03 148.29 283.22999999999996 C 148.5 283.37999999999994 148.76 283.49999999999994 149.19 283.53999999999996 C 149.7 283.59 150.13 283.4 150.49 283.12999999999994 C 151.15 282.62999999999994 151.54000000000002 281.85999999999996 151.54000000000002 281.85999999999996 C 151.54000000000002 281.85999999999996 156.23000000000002 274.97999999999996 157.27 273.34 C 158.31 271.7 157.27 269.82 157.27 269.82 L 156.85000000000002 269.01 L 156.74 268.8 L 156.74 268.8 C 156.74 268.8 152.94 271.89 152.94 271.89 L 152.94 271.89 C 152.94 271.89 153.06 272.09999999999997 153.06 272.09999999999997 L 154.87 275.30999999999995 L 154.27 275.6499999999999 L 152.51000000000002 272.5399999999999 L 152.4 272.3299999999999 L 152.4 272.3299999999999 C 152.4 272.3299999999999 148.11 275.81999999999994 148.11 275.81999999999994 L 148.11 275.81999999999994 C 148.11 275.81999999999994 148.21 276.03999999999996 148.21 276.03999999999996 L 150.89000000000001 281.37999999999994 L 150.28 281.67999999999995 L 147.67 276.47999999999996 L 147.55999999999997 276.25999999999993 L 147.55999999999997 276.25999999999993 C 147.55999999999997 276.25999999999993 145.74999999999997 277.73999999999995 145.74999999999997 277.73999999999995 L 145.54999999999998 277.88999999999993 L 145.52999999999997 277.9099999999999 L 145.54999999999998 277.9099999999999 C 145.54999999999998 277.9099999999999 145.64999999999998 278.1199999999999 145.64999999999998 278.1199999999999 L 147.40999999999997 281.7999999999999 L 147.66999999999996 282.3499999999999 L 147.76999999999995 282.5799999999999 L 147.78999999999996 282.5799999999999 C 147.78999999999996 282.5799999999999 147.84999999999997 282.74999999999994 147.84999999999997 282.74999999999994 L 147.84999999999997 282.56999999999994 L 147.84999999999997 282.56999999999994 Z" stroke-linecap="round" />
</g>
<g transform="matrix(2.59 0 0 2.59 503.28 657.2)"  >
<path style="stroke: none; stroke-width: 1; stroke-dasharray: none; stroke-linecap: butt; stroke-dashoffset: 0; stroke-linejoin: miter; stroke-miterlimit: 4; fill: rgb(0,0,0); fill-rule: nonzero; opacity: 1;" vector-effect="non-scaling-stroke"  transform=" translate(-155.61, -256.56)" d="M 155.13 255.16 L 154.39 255.82 L 154.41 255.85999999999999 L 154.47 255.92999999999998 L 154.60999999999999 256.12 L 155.86999999999998 257.78000000000003 L 156.00999999999996 257.97 L 156.00999999999996 257.97 C 156.00999999999996 257.97 156.00999999999996 257.97 156.00999999999996 257.97 L 156.20999999999995 257.83000000000004 L 156.83999999999995 257.36 L 156.83999999999995 257.36 C 156.83999999999995 257.36 156.68999999999994 257.16 156.68999999999994 257.16 L 155.16999999999993 255.14000000000001 C 155.16999999999993 255.14000000000001 155.13999999999993 255.16000000000003 155.13999999999993 255.16000000000003 Z" stroke-linecap="round" />
</g>
<g transform="matrix(2.59 0 0 2.59 511.18 619)"  >
<path style="stroke: none; stroke-width: 1; stroke-dasharray: none; stroke-linecap: butt; stroke-dashoffset: 0; stroke-linejoin: miter; stroke-miterlimit: 4; fill: rgb(0,0,0); fill-rule: nonzero; opacity: 1;" vector-effect="non-scaling-stroke"  transform=" translate(-158.66, -241.8)" d="M 140.39 226.85 L 139.16 228.47 L 164.51999999999998 247.6 L 164.71999999999997 247.75 L 164.91999999999996 247.9 L 166.94999999999996 249.43 L 167.14999999999995 249.58 L 167.14999999999995 249.58 C 167.14999999999995 249.58 167.33999999999995 249.73000000000002 167.33999999999995 249.73000000000002 L 167.33999999999995 249.73000000000002 C 167.33999999999995 249.73000000000002 167.53999999999994 249.88000000000002 167.53999999999994 249.88000000000002 L 173.54999999999993 254.40000000000003 L 173.73999999999992 254.55000000000004 L 173.9399999999999 254.70000000000005 L 176.6599999999999 256.75000000000006 L 178.1699999999999 254.74000000000007 C 177.6899999999999 254.38000000000005 176.9199999999999 253.81000000000006 175.9399999999999 253.08000000000007 C 175.8799999999999 253.03000000000006 175.80999999999992 252.98000000000008 175.73999999999992 252.93000000000006 C 175.66999999999993 252.88000000000005 175.60999999999993 252.83000000000007 175.53999999999994 252.78000000000006 C 173.97999999999993 251.61000000000007 171.90999999999994 250.08000000000007 169.57999999999993 248.34000000000006 C 169.50999999999993 248.29000000000005 169.44999999999993 248.24000000000007 169.37999999999994 248.19000000000005 C 169.37999999999994 248.19000000000005 169.37999999999994 248.19000000000005 169.37999999999994 248.19000000000005 C 169.30999999999995 248.14000000000004 169.24999999999994 248.09000000000006 169.17999999999995 248.04000000000005 L 169.17999999999995 248.04000000000005 C 169.09999999999994 247.99000000000004 169.03999999999996 247.94000000000005 168.96999999999994 247.89000000000004 C 168.31999999999994 247.40000000000003 167.62999999999994 246.90000000000003 166.93999999999994 246.38000000000005 C 166.86999999999995 246.33000000000004 166.80999999999995 246.28000000000006 166.73999999999995 246.23000000000005 C 166.66999999999996 246.18000000000004 166.60999999999996 246.13000000000005 166.53999999999996 246.08000000000004 C 156.12999999999997 238.34000000000003 142.59999999999997 228.28000000000003 140.86999999999995 226.97000000000003 C 140.86999999999995 226.97000000000003 140.63999999999996 226.88000000000002 140.37999999999994 226.84000000000003 Z" stroke-linecap="round" />
</g>
<g transform="matrix(2.59 0 0 2.59 412.6 559.83)"  >
<polygon style="stroke: none; stroke-width: 1; stroke-dasharray: none; stroke-linecap: butt; stroke-dashoffset: 0; stroke-linejoin: miter; stroke-miterlimit: 4; fill: rgb(0,0,0); fill-rule: nonzero; opacity: 1;" vector-effect="non-scaling-stroke"  points="16.06,8.53 -13.32,-13.37 -13.32,-13.37 -16.06,-9.75 12.39,13.37 16.06,8.53 " />
</g>
<g transform="matrix(2.59 0 0 2.59 613.72 705.08)"  >
<path style="stroke: none; stroke-width: 1; stroke-dasharray: none; stroke-linecap: butt; stroke-dashoffset: 0; stroke-linejoin: miter; stroke-miterlimit: 4; fill: rgb(0,0,0); fill-rule: nonzero; opacity: 1;" vector-effect="non-scaling-stroke"  transform=" translate(-198.28, -275.05)" d="M 197.95 279.88 C 198.66 279.48 199.57 279.51 200.26 280.03 C 200.29999999999998 280.05999999999995 200.32 280.10999999999996 200.35 280.13 L 203.17 276.4 L 202.25 275.7 L 202.12 275.90999999999997 L 201.71 275.60999999999996 L 194.26000000000002 269.96999999999997 L 193.39000000000001 271.10999999999996 L 200.36 276.58 L 200.77 276.9 L 200.42000000000002 277.28 L 197.95000000000002 279.88 Z" stroke-linecap="round" />
</g>
<g transform="matrix(2.59 0 0 2.59 611.05 725.87)"  >
<path style="stroke: none; stroke-width: 1; stroke-dasharray: none; stroke-linecap: butt; stroke-dashoffset: 0; stroke-linejoin: miter; stroke-miterlimit: 4; fill: rgb(0,0,0); fill-rule: nonzero; opacity: 1;" vector-effect="non-scaling-stroke"  transform=" translate(-197.25, -283.09)" d="M 199.39 283.75 C 198.82 283.86 198.20999999999998 283.75 197.72 283.38 C 196.87 282.74 196.68 281.57 197.21 280.67 L 195.15 282.83000000000004 L 195.29 282.94000000000005 L 195.10999999999999 283.09000000000003 L 196.99999999999997 285.50000000000006 L 199.38999999999996 283.74000000000007 Z" stroke-linecap="round" />
</g>
<g transform="matrix(2.59 0 0 2.59 626.09 716.97)"  >
<path style="stroke: none; stroke-width: 1; stroke-dasharray: none; stroke-linecap: butt; stroke-dashoffset: 0; stroke-linejoin: miter; stroke-miterlimit: 4; fill: rgb(0,0,0); fill-rule: nonzero; opacity: 1;" vector-effect="non-scaling-stroke"  transform=" translate(-203.06, -279.64)" d="M 203.63 280.64 L 203.64 280.64 C 203.64 280.64 203.97 280.40999999999997 203.97 280.40999999999997 L 204.32 280.15999999999997 L 205.62 278.27 L 203.35 276.54999999999995 L 200.5 280.30999999999995 C 201.12 280.97999999999996 201.23 281.94999999999993 200.78 282.73999999999995 L 202.85 281.21999999999997 L 203.23 280.95 L 203.23 280.95 C 203.23 280.95 203.23 280.94 203.23 280.94 L 203.26 280.94 C 203.26 280.94 203.63 280.66 203.63 280.66 Z" stroke-linecap="round" />
</g>
<g transform="matrix(2.59 0 0 2.59 615.71 695.67)"  >
<polygon style="stroke: none; stroke-width: 1; stroke-dasharray: none; stroke-linecap: butt; stroke-dashoffset: 0; stroke-linejoin: miter; stroke-miterlimit: 4; fill: rgb(0,0,0); fill-rule: nonzero; opacity: 1;" vector-effect="non-scaling-stroke"  points="4.08,-0.56 3.02,0.34 1.67,-0.77 1.44,-0.47 -3,-3.81 -4.35,-2.02 -4.49,-1.83 -4.5,-1.83 2.94,3.81 2.95,3.81 3.08,3.6 3.89,2.33 3.95,1.63 3.51,1.19 4.5,0.14 4.08,-0.56 " />
</g>
<g transform="matrix(2.59 0 0 2.59 371.65 527.4)"  >
<path style="stroke: none; stroke-width: 1; stroke-dasharray: none; stroke-linecap: butt; stroke-dashoffset: 0; stroke-linejoin: miter; stroke-miterlimit: 4; fill: rgb(0,0,0); fill-rule: nonzero; opacity: 1;" vector-effect="non-scaling-stroke"  transform=" translate(-104.76, -206.4)" d="M 102.81 207.76 C 102.88 207.73 102.93 207.70999999999998 102.99000000000001 207.64 L 104.17000000000002 208.52999999999997 L 106.71000000000002 205.16999999999996 L 105.51000000000002 204.27999999999997 L 102.81000000000002 207.76999999999998 Z" stroke-linecap="round" />
</g>
<g transform="matrix(2.59 0 0 2.59 354.93 503.07)"  >
<path style="stroke: none; stroke-width: 1; stroke-dasharray: none; stroke-linecap: butt; stroke-dashoffset: 0; stroke-linejoin: miter; stroke-miterlimit: 4; fill: rgb(0,0,0); fill-rule: nonzero; opacity: 1;" vector-effect="non-scaling-stroke"  transform=" translate(-98.3, -197)" d="M 95.02 198.29 L 95.02 198.29 C 94.97 198.57999999999998 95 198.92999999999998 95.31 199.16 C 95.75 199.49 96.83 200.31 97.4 200.75 L 97.4 200.75 C 97.4 200.75 98.64 199.15 98.64 199.15 L 98.94 198.76000000000002 L 99.00999999999999 198.67000000000002 L 99.11999999999999 198.53000000000003 L 100.13 197.23000000000002 L 100.42999999999999 196.85000000000002 L 100.61999999999999 197.00000000000003 L 101.36999999999999 196.04000000000002 C 101.67999999999999 195.3 101.77999999999999 194.45000000000002 101.02 193.87000000000003 C 99.61999999999999 192.81000000000003 98.89999999999999 193.25000000000003 98 194.26000000000002 L 96.84 195.83 L 96.69 196.02 L 95.14999999999999 198.10000000000002 L 95.00999999999999 198.28000000000003 Z M 98.72999999999999 194.45 C 99.13999999999999 193.89999999999998 99.91999999999999 193.79999999999998 100.46 194.20999999999998 C 101 194.61999999999998 101.1 195.39 100.69 195.93999999999997 C 100.28 196.48999999999998 99.50999999999999 196.58999999999997 98.96 196.17999999999998 C 98.41999999999999 195.76999999999998 98.30999999999999 194.99999999999997 98.72999999999999 194.45 Z" stroke-linecap="round" />
</g>
<g transform="matrix(2.59 0 0 2.59 377.45 519.89)"  >
<polygon style="stroke: none; stroke-width: 1; stroke-dasharray: none; stroke-linecap: butt; stroke-dashoffset: 0; stroke-linejoin: miter; stroke-miterlimit: 4; fill: rgb(0,0,0); fill-rule: nonzero; opacity: 1;" vector-effect="non-scaling-stroke"  points="-1.2,0.38 -1.2,0.38 0,1.28 0.01,1.28 0.14,1.09 1.2,-0.31 0.1,-1.28 -1.05,0.19 -1.2,0.38 " />
</g>
<g transform="matrix(2.59 0 0 2.59 595.8 727.76)"  >
<path style="stroke: none; stroke-width: 1; stroke-dasharray: none; stroke-linecap: butt; stroke-dashoffset: 0; stroke-linejoin: miter; stroke-miterlimit: 4; fill: rgb(0,0,0); fill-rule: nonzero; opacity: 1;" vector-effect="non-scaling-stroke"  transform=" translate(-191.36, -283.81)" d="M 196.61 285.79 L 194.68 283.32 L 194.66 283.32 C 194.66 283.32 194.64 283.34999999999997 194.64 283.34999999999997 L 194.29999999999998 283.07 L 188.95999999999998 278.71999999999997 L 188.54999999999998 278.52 L 186.98 281.84 L 186.69 282.44 L 186.45 282.95 L 186.10999999999999 283.65999999999997 C 186.30999999999997 284.77 186.92999999999998 286.40999999999997 188.80999999999997 287.83 C 188.97999999999996 287.96 189.14999999999998 288.08 189.32999999999998 288.2 C 190.19 288.76 190.95 289.02 191.64999999999998 289.09 C 192.73 289.19 193.60999999999999 288.78 194.27999999999997 288.22999999999996 C 195.02999999999997 287.61999999999995 195.52999999999997 286.85999999999996 195.80999999999997 286.43999999999994 L 196.49999999999997 285.91999999999996 L 196.46999999999997 285.87999999999994 L 196.57999999999998 285.78999999999996 L 196.6 285.78999999999996 Z M 193.9 287.94 C 192.78 289.32 190.78 288.5 189.64000000000001 287.64 C 189.42000000000002 287.46999999999997 189.22000000000003 287.3 189.08 287.14 C 188.18 286.18 185.87 283.84 187.66000000000003 281.59 C 188.88000000000002 280.06 190.62000000000003 280.97999999999996 191.61 281.72999999999996 C 192.08 282.08 192.38000000000002 282.4 192.38000000000002 282.4 C 192.38000000000002 282.4 193.12000000000003 284.57 193.63000000000002 285.53 C 194.14000000000001 286.48999999999995 192.43000000000004 287.86999999999995 192.05 287.86999999999995 L 191.68 287.86999999999995 C 191.68 287.86999999999995 192.83 288.73999999999995 194.18 286.80999999999995 C 194.18 286.80999999999995 194.69 285.38999999999993 194.42000000000002 284.61999999999995 C 194.42000000000002 284.61999999999995 195.24 286.28999999999996 193.9 287.93999999999994 Z" stroke-linecap="round" />
</g>
<g transform="matrix(2.59 0 0 2.59 615.49 722.32)"  >
<path style="stroke: none; stroke-width: 1; stroke-dasharray: none; stroke-linecap: butt; stroke-dashoffset: 0; stroke-linejoin: miter; stroke-miterlimit: 4; fill: rgb(0,0,0); fill-rule: nonzero; opacity: 1;" vector-effect="non-scaling-stroke"  transform=" translate(-198.96, -281.71)" d="M 200.45 282.35 C 200.48 282.29 200.51999999999998 282.24 200.53 282.17 C 200.57 282.06 200.57 281.94 200.58 281.82 C 200.58 281.74 200.60000000000002 281.67 200.58 281.59999999999997 C 200.58 281.48999999999995 200.54000000000002 281.37999999999994 200.52 281.27 C 200.49 281.19 200.47 281.12 200.44 281.04999999999995 C 200.39 280.94999999999993 200.32999999999998 280.84999999999997 200.25 280.74999999999994 C 200.17 280.6499999999999 200.1 280.54999999999995 200 280.4599999999999 C 199.98 280.44999999999993 199.97 280.42999999999995 199.96 280.4099999999999 C 199.24 279.8699999999999 198.21 280.00999999999993 197.67000000000002 280.7299999999999 C 197.12 281.44999999999993 197.27 282.4799999999999 197.99 283.0199999999999 C 198.71 283.55999999999995 199.73000000000002 283.4199999999999 200.28 282.69999999999993 C 200.36 282.5999999999999 200.39000000000001 282.4799999999999 200.44 282.3499999999999 Z" stroke-linecap="round" />
</g>
<g transform="matrix(2.59 0 0 2.59 418.83 550.27)"  >
<path style="stroke: none; stroke-width: 1; stroke-dasharray: none; stroke-linecap: butt; stroke-dashoffset: 0; stroke-linejoin: miter; stroke-miterlimit: 4; fill: rgb(0,0,0); fill-rule: nonzero; opacity: 1;" vector-effect="non-scaling-stroke"  transform=" translate(-122.98, -215.24)" d="M 108.91 203.39 L 107.69 205 L 107.55 205.19 L 107.55 205.19 C 107.55 205.19 136.93 227.09 136.93 227.09 L 136.93 227.09 C 136.93 227.09 137.07 226.89000000000001 137.07 226.89000000000001 L 138.42 225.12 C 135.48999999999998 222.95000000000002 111.35 205.1 109.13999999999999 203.43 L 108.92999999999999 203.39000000000001 Z" stroke-linecap="round" />
</g>
<g transform="matrix(2.59 0 0 2.59 533.37 655.19)"  >
<path style="stroke: none; stroke-width: 1; stroke-dasharray: none; stroke-linecap: butt; stroke-dashoffset: 0; stroke-linejoin: miter; stroke-miterlimit: 4; fill: rgb(0,0,0); fill-rule: nonzero; opacity: 1;" vector-effect="non-scaling-stroke"  transform=" translate(-167.24, -255.78)" d="M 167.13 259.93 C 167.19 259.98 167.24 260.04 167.31 260.09000000000003 C 169.15 261.70000000000005 171.15 263.6 172.52 264.91 L 176.82000000000002 268.26000000000005 L 176.82000000000002 268.26000000000005 C 176.82000000000002 268.26000000000005 176.88000000000002 268.28000000000003 176.88000000000002 268.28000000000003 L 176.99000000000004 268.06 L 177.43000000000004 268.43 L 181.24000000000004 271.53000000000003 L 181.34000000000003 271.61 L 181.77000000000004 271.96000000000004 L 186.07000000000005 275.45000000000005 L 186.15000000000006 275.52000000000004 L 186.61000000000007 275.89000000000004 L 188.65000000000006 277.55000000000007 L 191.70000000000007 280.0400000000001 L 191.70000000000007 280.0400000000001 C 191.70000000000007 280.0400000000001 190.80000000000007 279.61000000000007 190.80000000000007 279.61000000000007 L 190.75000000000006 279.5900000000001 L 194.40000000000006 282.5600000000001 L 194.59000000000006 282.7100000000001 L 194.59000000000006 282.7100000000001 C 194.59000000000006 282.7100000000001 194.59000000000006 282.7100000000001 194.59000000000006 282.7100000000001 L 194.76000000000005 282.5400000000001 L 200.06000000000006 276.9600000000001 L 193.10000000000005 271.49000000000007 L 193.10000000000005 271.49000000000007 C 193.10000000000005 271.49000000000007 192.96000000000006 271.69000000000005 192.96000000000006 271.69000000000005 L 192.87000000000006 271.61000000000007 L 192.73000000000008 271.50000000000006 L 192.5900000000001 271.39000000000004 L 191.3600000000001 270.43000000000006 L 191.3600000000001 270.43000000000006 L 191.00000000000009 270.1500000000001 L 180.35000000000008 261.7800000000001 L 180.22000000000008 261.68000000000006 L 180.1800000000001 261.52000000000004 L 179.8400000000001 260.06000000000006 L 177.7700000000001 258.50000000000006 L 177.3900000000001 258.21000000000004 L 177.3900000000001 258.21000000000004 L 176.7600000000001 257.74 L 176.56000000000012 257.59000000000003 L 176.39000000000013 257.46000000000004 L 176.53000000000011 257.27000000000004 L 176.53000000000011 257.27000000000004 C 176.53000000000011 257.27000000000004 173.55000000000013 255.01000000000005 173.55000000000013 255.01000000000005 L 173.36000000000013 254.86000000000004 L 173.16000000000014 254.71000000000004 L 167.14000000000013 250.17000000000004 L 166.94000000000014 250.02000000000004 L 166.94000000000014 250.02000000000004 C 166.94000000000014 250.02000000000004 166.75000000000014 249.87000000000003 166.75000000000014 249.87000000000003 L 166.75000000000014 249.87000000000003 C 166.75000000000014 249.87000000000003 166.55000000000015 249.72000000000003 166.55000000000015 249.72000000000003 L 164.51000000000016 248.19000000000003 L 164.31000000000017 248.04000000000002 L 164.12000000000018 247.89000000000001 L 138.87000000000018 228.84 L 138.87000000000018 228.84 C 138.87000000000018 228.84 138.72000000000017 229.04 138.72000000000017 229.04 L 134.42000000000016 234.72 C 135.10000000000016 235.21 135.79000000000016 235.7 135.79000000000016 235.7 C 135.79000000000016 235.7 137.23000000000016 236.69 137.68000000000015 236.08999999999997 C 137.68000000000015 236.08999999999997 149.70000000000016 245.80999999999997 157.94000000000014 252.46999999999997 C 158.01000000000013 252.51999999999998 158.07000000000014 252.56999999999996 158.14000000000013 252.61999999999998 C 158.20000000000013 252.67 158.26000000000013 252.71999999999997 158.33000000000013 252.76999999999998 C 159.03000000000011 253.33999999999997 159.70000000000013 253.88 160.34000000000012 254.39 C 160.4100000000001 254.44 160.46000000000012 254.48999999999998 160.53000000000011 254.54999999999998 L 160.53000000000011 254.54999999999998 C 160.59000000000012 254.60999999999999 160.65000000000012 254.64999999999998 160.71000000000012 254.7 L 160.71000000000012 254.7 C 160.78000000000011 254.75 160.84000000000012 254.81 160.9100000000001 254.85999999999999 C 163.2000000000001 256.71999999999997 164.8900000000001 258.08 165.3800000000001 258.46999999999997 C 165.8600000000001 258.84999999999997 166.3900000000001 259.29999999999995 166.9200000000001 259.77 C 166.9900000000001 259.82 167.0400000000001 259.85999999999996 167.1100000000001 259.91999999999996 Z" stroke-linecap="round" />
</g>
<g transform="matrix(2.59 0 0 2.59 356.63 515.7)"  >
<path style="stroke: none; stroke-width: 1; stroke-dasharray: none; stroke-linecap: butt; stroke-dashoffset: 0; stroke-linejoin: miter; stroke-miterlimit: 4; fill: rgb(0,0,0); fill-rule: nonzero; opacity: 1;" vector-effect="non-scaling-stroke"  transform=" translate(-98.95, -201.88)" d="M 97.51 201.42 L 96.97 202.13 C 96.97 202.13 96.48 202.9 97.45 203.63 C 97.75 203.85 98.09 204.1 98.44 204.35 L 98.44 204.35 C 98.44 204.35 101.06 200.87 101.06 200.87 L 99.24000000000001 199.56 L 99.05000000000001 199.43 L 99.05000000000001 199.43 C 99.05000000000001 199.43 99.05000000000001 199.42000000000002 99.05000000000001 199.42000000000002 L 97.80000000000001 201.03000000000003 L 97.80000000000001 201.03000000000003 C 97.80000000000001 201.03000000000003 97.80000000000001 201.05000000000004 97.80000000000001 201.05000000000004 L 97.53000000000002 201.41000000000005 Z" stroke-linecap="round" />
</g>
<g transform="matrix(2.59 0 0 2.59 601.8 687.86)"  >
<polygon style="stroke: none; stroke-width: 1; stroke-dasharray: none; stroke-linecap: butt; stroke-dashoffset: 0; stroke-linejoin: miter; stroke-miterlimit: 4; fill: rgb(0,0,0); fill-rule: nonzero; opacity: 1;" vector-effect="non-scaling-stroke"  points="-0.81,2.61 -0.8,2.62 -0.79,2.61 -0.65,2.42 0.21,1.28 0.35,1.09 0.49,0.9 0.64,0.71 2,-1.09 1.99,-1.09 1.8,-1.24 -0.03,-2.62 -0.06,-2.58 0.05,-2.49 -0.04,-2.19 -0.63,-0.04 -0.65,0.07 -0.72,0.14 -1.86,1.48 -2.01,1.66 -2.01,1.66 -1,2.47 -0.81,2.61 " />
</g>
<g transform="matrix(2.59 0 0 2.59 581.17 674.38)"  >
<path style="stroke: none; stroke-width: 1; stroke-dasharray: none; stroke-linecap: butt; stroke-dashoffset: 0; stroke-linejoin: miter; stroke-miterlimit: 4; fill: rgb(0,0,0); fill-rule: nonzero; opacity: 1;" vector-effect="non-scaling-stroke"  transform=" translate(-185.7, -263.19)" d="M 180.26 259.78 L 180.64999999999998 261.4 L 191.09999999999997 269.62 L 191.28999999999996 269.77 L 191.28999999999996 269.77 C 191.28999999999996 269.77 191.28999999999996 269.77 191.28999999999996 269.77 L 191.43999999999997 269.59 L 192.57999999999996 268.23999999999995 L 193.16999999999996 266.09 L 193.16999999999996 266.09 C 193.16999999999996 266.09 192.95999999999995 265.92999999999995 192.95999999999995 265.92999999999995 L 192.34999999999994 265.46999999999997 C 192.34999999999994 265.46999999999997 191.23999999999992 266.82 189.77999999999994 265.71 C 188.32999999999996 264.60999999999996 188.66999999999993 263.91999999999996 188.66999999999993 263.91999999999996 L 182.09999999999994 258.75999999999993 L 179.48999999999992 256.60999999999996 L 178.3799999999999 258.06999999999994 L 178.23999999999992 258.25999999999993 L 178.23999999999992 258.25999999999993 C 178.23999999999992 258.25999999999993 180.2199999999999 259.75999999999993 180.2199999999999 259.75999999999993 L 180.2599999999999 259.7899999999999 Z" stroke-linecap="round" />
</g>
<g transform="matrix(2.59 0 0 2.59 453.29 588.85)"  >
<path style="stroke: none; stroke-width: 1; stroke-dasharray: none; stroke-linecap: butt; stroke-dashoffset: 0; stroke-linejoin: miter; stroke-miterlimit: 4; fill: rgb(0,0,0); fill-rule: nonzero; opacity: 1;" vector-effect="non-scaling-stroke"  transform=" translate(-136.3, -230.14)" d="M 133 233.39 C 133.02 233.57 133.09 233.75 133.27 233.89 C 133.42000000000002 234 133.62 234.14999999999998 133.87 234.32999999999998 L 139.6 226.76 L 138.63 225.95999999999998 L 133.01 233.39 Z" stroke-linecap="round" />
</g>
<g transform="matrix(2.59 0 0 2.59 366.75 519.61)"  >
<path style="stroke: none; stroke-width: 1; stroke-dasharray: none; stroke-linecap: butt; stroke-dashoffset: 0; stroke-linejoin: miter; stroke-miterlimit: 4; fill: rgb(0,0,0); fill-rule: nonzero; opacity: 1;" vector-effect="non-scaling-stroke"  transform=" translate(-102.86, -203.4)" d="M 102.11 200.67 L 102.07 200.72 L 101.91999999999999 200.92 L 101.63999999999999 201.29 L 101.43999999999998 201.15 L 101.43999999999998 201.15 C 101.43999999999998 201.15 98.80999999999999 204.63 98.80999999999999 204.63 L 98.80999999999999 204.63 C 98.87999999999998 204.68 98.93999999999998 204.73 99.00999999999999 204.76999999999998 C 99.53999999999999 205.14999999999998 99.96999999999998 205.45 99.96999999999998 205.45 C 99.96999999999998 205.45 98.86999999999999 206.89999999999998 99.71999999999998 207.54 C 100.56999999999998 208.17999999999998 101.65999999999998 207.10999999999999 101.65999999999998 207.10999999999999 C 101.65999999999998 207.10999999999999 101.84999999999998 207.32999999999998 102.06999999999998 207.52999999999997 C 102.09999999999998 207.54999999999998 102.11999999999998 207.57999999999998 102.14999999999998 207.59999999999997 C 102.17999999999998 207.62999999999997 102.21999999999997 207.65999999999997 102.25999999999998 207.67999999999998 L 102.25999999999998 207.67999999999998 C 102.25999999999998 207.67999999999998 105.12999999999998 203.98999999999998 105.12999999999998 203.98999999999998 L 105.26999999999998 203.79999999999998 L 105.41999999999999 203.60999999999999 L 105.55999999999999 203.42 L 106.88999999999999 201.72 L 106.91999999999999 201.67 L 106.72999999999999 201.51999999999998 L 103.57 199.04999999999998 C 103.57 199.04999999999998 103.41 199.04999999999998 103.22 199.04999999999998 L 103.28 199.1 L 103 199.47 L 102.09 200.67 Z" stroke-linecap="round" />
</g>
<g transform="matrix(2.59 0 0 2.59 361.88 508.43)"  >
<polygon style="stroke: none; stroke-width: 1; stroke-dasharray: none; stroke-linecap: butt; stroke-dashoffset: 0; stroke-linejoin: miter; stroke-miterlimit: 4; fill: rgb(0,0,0); fill-rule: nonzero; opacity: 1;" vector-effect="non-scaling-stroke"  points="-0.47,-1.55 -0.47,-1.55 -1.47,-0.26 -1.61,-0.07 -1.66,-0.02 -1.64,-0.02 -1.47,0.12 0.36,1.42 0.56,1.56 0.56,1.56 0.61,1.52 0.75,1.33 1.66,0.12 1.64,0.11 1.47,-0.04 -0.28,-1.41 -0.47,-1.55 " />
</g>
<g transform="matrix(2.59 0 0 2.59 572.23 708.02)"  >
<path style="stroke: none; stroke-width: 1; stroke-dasharray: none; stroke-linecap: butt; stroke-dashoffset: 0; stroke-linejoin: miter; stroke-miterlimit: 4; fill: rgb(0,0,0); fill-rule: nonzero; opacity: 1;" vector-effect="non-scaling-stroke"  transform=" translate(-182.25, -276.19)" d="M 186.03 282.6 C 186.03 282.6 186.03 282.68 186.03 282.74 L 186.03 282.76 L 186.11 282.61 L 186.11 282.61 C 186.11 282.61 186.22000000000003 282.37 186.22000000000003 282.37 L 186.47000000000003 281.82 L 188.23000000000002 278.14 L 188.33 277.91999999999996 L 188.35000000000002 277.91999999999996 C 188.35000000000002 277.91999999999996 188.33 277.90999999999997 188.33 277.90999999999997 L 188.14000000000001 277.76 L 186.32000000000002 276.28 L 186.32000000000002 276.28 C 186.32000000000002 276.28 186.22000000000003 276.51 186.22000000000003 276.51 L 183.61 281.71 L 183 281.40999999999997 L 185.68 276.07 L 185.78 275.86 L 185.78 275.86 C 185.78 275.86 181.48 272.36 181.48 272.36 L 181.48 272.36 C 181.48 272.36 181.35999999999999 272.57 181.35999999999999 272.57 L 179.6 275.68 L 179.01 275.34000000000003 L 180.81 272.13000000000005 L 180.94 271.9200000000001 L 180.94 271.9200000000001 C 180.94 271.9200000000001 177.14 268.81000000000006 177.14 268.81000000000006 L 177.14 268.81000000000006 C 177.14 268.81000000000006 177.02999999999997 269.0300000000001 177.02999999999997 269.0300000000001 L 176.60999999999999 269.8400000000001 C 176.60999999999999 269.8400000000001 175.57 271.7200000000001 176.60999999999999 273.36000000000007 C 177.64999999999998 275.00000000000006 182.33999999999997 281.88000000000005 182.33999999999997 281.88000000000005 C 182.33999999999997 281.88000000000005 182.70999999999998 282.65000000000003 183.37999999999997 283.15000000000003 C 183.74999999999997 283.42 184.17999999999998 283.61 184.68999999999997 283.56000000000006 C 185.10999999999996 283.52000000000004 185.36999999999998 283.39000000000004 185.57999999999996 283.25000000000006 C 185.86999999999995 283.05000000000007 185.98999999999995 282.80000000000007 186.01999999999995 282.62000000000006 C 186.01999999999995 282.62000000000006 186.01999999999995 282.61000000000007 186.01999999999995 282.61000000000007 C 186.01999999999995 282.61000000000007 186.01999999999995 282.61000000000007 186.01999999999995 282.6000000000001 L 186.01999999999995 282.6000000000001 L 186.01999999999995 282.63000000000005 Z" stroke-linecap="round" />
</g>
<g transform="matrix(2.59 0 0 2.59 561.92 657.2)"  >
<path style="stroke: none; stroke-width: 1; stroke-dasharray: none; stroke-linecap: butt; stroke-dashoffset: 0; stroke-linejoin: miter; stroke-miterlimit: 4; fill: rgb(0,0,0); fill-rule: nonzero; opacity: 1;" vector-effect="non-scaling-stroke"  transform=" translate(-178.27, -256.56)" d="M 177.05 257.35 L 177.05 257.35 C 177.05 257.35 177.68 257.83000000000004 177.68 257.83000000000004 L 177.87 257.97 L 177.87 257.97 C 177.87 257.97 177.87 257.97 177.87 257.97 L 178.01 257.78000000000003 L 179.26999999999998 256.12 L 179.40999999999997 255.93 L 179.45999999999998 255.86 L 179.48999999999998 255.82000000000002 L 178.73999999999998 255.16000000000003 C 178.73999999999998 255.16000000000003 178.73999999999998 255.16000000000003 178.70999999999998 255.14000000000001 L 177.18999999999997 257.16 L 177.04999999999998 257.35 Z" stroke-linecap="round" />
</g>
<g transform="matrix(2.59 0 0 2.59 535.46 577.5)"  >
<path style="stroke: none; stroke-width: 1; stroke-dasharray: none; stroke-linecap: butt; stroke-dashoffset: 0; stroke-linejoin: miter; stroke-miterlimit: 4; fill: rgb(0,0,0); fill-rule: nonzero; opacity: 1;" vector-effect="non-scaling-stroke"  transform=" translate(-168.04, -225.76)" d="M 173.17 373.99 C 179.55999999999997 370.32 212.37 351.07 230.6 332.84000000000003 C 264.76 298.67 284.82 254.90000000000003 293.7 194.99000000000004 L 295.34999999999997 182.24000000000004 C 298.55999999999995 153.52000000000004 297.71999999999997 94.26000000000003 297.68999999999994 91.75000000000004 L 297.5799999999999 84.48000000000005 L 284.54999999999995 82.69000000000004 C 272.72999999999996 81.07000000000004 261.43999999999994 78.94000000000004 250.58999999999995 76.38000000000004 C 248.07999999999996 75.79000000000003 245.61999999999995 75.17000000000004 243.15999999999994 74.53000000000004 C 243.15999999999994 76.86000000000004 243.09999999999994 170.27000000000004 243.09999999999994 170.27000000000004 L 243.09999999999994 192.15000000000003 C 242.95999999999995 192.06000000000003 242.86999999999995 192.00000000000003 242.86999999999995 192.00000000000003 L 237.67999999999995 195.91000000000003 L 238.94999999999996 197.62000000000003 L 243.09999999999997 194.48000000000005 L 243.09999999999997 305.32000000000005 C 242.04999999999995 306.75000000000006 240.95999999999998 308.18000000000006 239.85999999999996 309.6 C 239.07999999999996 310.6 238.28999999999996 311.6 237.48999999999995 312.58000000000004 C 237.36999999999995 312.73 236.95999999999995 313.22 236.32999999999996 313.95000000000005 C 236.27999999999994 314.01000000000005 236.22999999999996 314.07000000000005 236.17999999999995 314.13000000000005 C 236.12999999999994 314.19000000000005 236.07999999999996 314.25000000000006 236.02999999999994 314.31000000000006 C 232.90999999999994 311.18000000000006 227.73999999999995 306.30000000000007 221.34999999999994 301.4700000000001 C 210.76999999999992 293.4500000000001 208.15999999999994 291.4800000000001 205.85999999999993 285.4700000000001 C 205.85999999999993 285.4700000000001 204.46999999999994 282.7100000000001 203.51999999999992 281.31000000000006 L 203.51999999999992 281.31000000000006 C 203.51999999999992 281.31000000000006 203.51999999999992 281.31000000000006 203.51999999999992 281.30000000000007 L 203.14999999999992 281.57000000000005 L 197.2899999999999 285.87000000000006 L 197.1599999999999 285.9700000000001 L 197.1599999999999 285.9700000000001 C 197.1599999999999 285.9700000000001 197.17999999999992 286.00000000000006 197.1899999999999 286.0100000000001 C 198.1099999999999 287.1800000000001 200.95999999999992 290.8700000000001 202.1999999999999 292.6000000000001 C 203.6799999999999 294.6700000000001 205.3999999999999 297.68000000000006 203.9499999999999 300.11000000000007 C 203.9499999999999 300.11000000000007 204.99999999999991 302.24000000000007 207.6799999999999 304.36000000000007 C 210.3599999999999 306.4800000000001 214.96999999999989 315.1000000000001 217.9199999999999 320.01000000000005 L 218.6599999999999 321.4200000000001 C 218.6599999999999 321.4200000000001 218.14999999999992 322.4700000000001 218.4499999999999 322.9700000000001 C 218.4499999999999 322.9700000000001 217.8299999999999 325.1700000000001 218.0799999999999 325.7300000000001 C 218.0799999999999 325.7300000000001 218.21999999999989 326.26000000000005 218.8199999999999 326.7100000000001 C 219.1099999999999 326.9300000000001 219.5199999999999 327.1400000000001 220.0699999999999 327.24000000000007 C 220.0699999999999 327.24000000000007 220.0999999999999 327.20000000000005 220.1099999999999 327.19000000000005 C 220.1499999999999 327.13000000000005 220.2699999999999 326.9200000000001 220.3999999999999 326.52000000000004 C 220.5299999999999 326.11 220.65999999999988 325.53000000000003 220.6499999999999 324.72 C 220.6499999999999 324.72 221.56999999999988 326.71000000000004 222.7499999999999 328.56 C 222.6799999999999 328.62 222.62999999999988 328.67 222.56999999999988 328.72 C 222.50999999999988 328.78000000000003 222.45999999999987 328.84000000000003 222.3999999999999 328.89000000000004 C 221.34999999999988 329.91 220.2799999999999 330.93000000000006 219.1799999999999 331.94000000000005 C 199.46999999999989 349.32000000000005 169.1699999999999 366.52000000000004 168.8599999999999 366.71000000000004 L 168.0499999999999 367.19000000000005 L 167.9499999999999 367.13000000000005 L 167.2399999999999 366.71000000000004 C 166.9299999999999 366.52000000000004 136.9499999999999 349.51000000000005 117.2299999999999 332.24 C 115.48999999999991 330.53000000000003 113.8999999999999 328.93 112.4199999999999 327.42 C 112.3599999999999 327.36 112.2999999999999 327.3 112.2399999999999 327.24 C 112.1799999999999 327.18 112.1299999999999 327.12 112.0699999999999 327.06 C 112.78999999999989 325.77 113.27999999999989 324.71 113.27999999999989 324.71 C 113.27999999999989 325.51 113.38999999999989 326.09999999999997 113.51999999999988 326.51 C 113.65999999999988 326.90999999999997 113.76999999999988 327.12 113.81999999999988 327.18 C 113.81999999999988 327.19 113.84999999999988 327.23 113.84999999999988 327.23 C 114.40999999999988 327.13 114.80999999999987 326.92 115.10999999999989 326.70000000000005 C 115.69999999999989 326.25000000000006 115.84999999999988 325.72 115.84999999999988 325.72 C 116.08999999999988 325.16 115.47999999999988 322.96000000000004 115.47999999999988 322.96000000000004 C 115.75999999999988 322.46000000000004 115.25999999999988 321.41 115.25999999999988 321.41 L 115.99999999999987 320 C 118.95999999999987 315.1 123.56999999999988 306.47 126.23999999999987 304.35 C 128.91999999999987 302.23 129.97999999999988 300.1 129.97999999999988 300.1 C 128.51999999999987 297.67 130.23999999999987 294.66 131.71999999999989 292.59000000000003 C 132.9599999999999 290.86 135.81999999999988 287.17 136.72999999999988 286.00000000000006 C 136.72999999999988 286.00000000000006 136.7499999999999 285.9800000000001 136.75999999999988 285.9700000000001 C 136.75999999999988 285.9700000000001 136.75999999999988 285.9700000000001 136.75999999999988 285.9700000000001 L 136.6199999999999 285.87000000000006 L 130.75999999999988 281.57000000000005 L 130.39999999999986 281.30000000000007 C 130.39999999999986 281.30000000000007 130.39999999999986 281.30000000000007 130.39999999999986 281.31000000000006 L 130.39999999999986 281.31000000000006 C 129.44999999999987 282.71000000000004 128.05999999999986 285.4700000000001 128.05999999999986 285.4700000000001 C 125.75999999999986 291.49000000000007 123.15999999999985 293.4600000000001 112.56999999999987 301.4700000000001 C 106.92999999999986 305.74000000000007 102.22999999999986 310.05000000000007 99.05999999999986 313.1500000000001 C 98.99999999999986 313.0900000000001 98.96999999999986 313.0300000000001 98.90999999999985 312.9700000000001 C 98.85999999999986 312.9100000000001 98.81999999999985 312.8500000000001 98.75999999999985 312.7900000000001 C 98.12999999999985 312.00000000000006 97.47999999999985 311.2200000000001 96.85999999999984 310.43000000000006 C 96.48999999999984 309.96000000000004 96.12999999999984 309.49000000000007 95.75999999999985 309.02000000000004 C 95.02999999999984 308.08000000000004 94.30999999999985 307.14000000000004 93.58999999999985 306.19000000000005 C 93.23999999999985 305.71000000000004 92.88999999999984 305.24000000000007 92.53999999999985 304.76000000000005 C 92.06999999999985 304.12000000000006 91.60999999999984 303.4800000000001 91.15999999999985 302.83000000000004 C 91.15999999999985 302.83000000000004 91.17999999999985 249.77000000000004 91.19999999999986 195.35000000000002 L 91.19999999999986 194.76000000000002 L 94.97999999999986 197.61 L 96.23999999999987 195.9 L 91.20999999999987 192.09 L 91.20999999999987 191.49 C 91.22999999999986 144.75 91.23999999999987 77.37 91.23999999999987 74.89000000000001 C 88.78999999999986 75.52000000000001 86.31999999999987 76.13000000000001 83.80999999999986 76.72000000000001 C 73.51999999999987 79.12000000000002 62.80999999999986 81.13000000000001 51.54999999999986 82.67000000000002 L 38.51999999999986 84.46000000000002 L 38.40999999999986 91.72000000000003 C 38.36999999999986 94.21000000000002 37.52999999999986 153.03000000000003 40.59999999999986 181.16000000000003 L 41.98999999999986 192.3 C 46.399999999999864 223.76000000000002 55.539999999999864 267.24 83.75999999999986 307.03000000000003 L 83.75999999999986 307.18 L 83.86999999999986 307.18 C 90.09999999999987 315.96 97.25999999999986 324.56 105.49999999999986 332.8 C 123.73999999999985 351.05 156.52999999999986 370.28000000000003 163.00999999999985 374 L 168.06999999999985 376.99 L 173.22999999999985 373.95 Z M 250.5 161.23000000000002 L 250.59 186.76000000000002 C 250.59 186.76000000000002 250.59 114.29000000000002 250.59 85.14000000000001 L 250.59 85.14000000000001 C 250.8 85.19000000000001 251.02 85.23000000000002 251.23 85.28000000000002 C 261.53 87.62000000000002 272.26 89.56000000000002 283.38 91.09000000000002 L 286.40999999999997 91.50000000000001 L 289.21 91.89000000000001 C 289.21 91.89000000000001 289.82 132.83 288.28999999999996 163.25 C 288.28999999999996 163.25 287.28 178.17 286.93999999999994 181.25 L 285.29999999999995 193.84 C 284.77 197.41 284.19999999999993 200.91 283.59 204.36 C 283.57 204.46 283.54999999999995 204.55 283.53 204.65 C 281.04999999999995 218.59 277.9 231.59 274.02 243.73000000000002 C 274.02 243.74 274.02 243.76000000000002 274.02 243.78000000000003 C 273.10999999999996 246.59000000000003 272.16999999999996 249.35000000000002 271.2 252.08000000000004 C 271.07 252.44000000000005 270.94 252.81000000000003 270.81 253.17000000000004 C 269.97 255.47000000000006 269.1 257.72 268.2 259.95000000000005 C 267.87 260.80000000000007 267.53 261.66 267.17 262.50000000000006 C 266.46000000000004 264.2200000000001 265.71000000000004 265.9200000000001 264.97 267.6000000000001 C 264.1 269.55000000000007 263.19000000000005 271.50000000000006 262.26000000000005 273.4500000000001 C 261.96000000000004 274.0600000000001 261.68000000000006 274.67000000000013 261.37000000000006 275.2900000000001 C 258.1600000000001 281.81000000000006 254.52000000000007 288.24000000000007 250.49000000000007 294.56000000000006 L 250.49000000000007 161.24000000000007 Z M 218.63 324.47 L 219.38 323.6 C 219.57 323.85 219.88 326.46000000000004 219.88 326.46000000000004 L 218.73 325.59000000000003 L 218.63 324.47 Z M 115.14999999999999 325.59000000000003 L 113.99999999999999 326.46000000000004 C 113.99999999999999 326.46000000000004 114.29999999999998 323.85 114.49999999999999 323.6 L 115.25999999999999 324.47 L 115.16 325.59000000000003 Z M 50.91 195.36 C 50.73 194.16000000000003 50.559999999999995 192.96 50.38999999999999 191.76000000000002 C 50.36999999999999 191.59000000000003 50.339999999999996 191.41000000000003 50.309999999999995 191.24 L 48.949999999999996 180.22 C 48.629999999999995 177.31 48.35999999999999 174.03 48.12 170.53 L 47.739999999999995 163.9 C 46.19 133.75 46.81999999999999 91.89 46.81999999999999 91.89 L 49.629999999999995 91.5 L 52.63999999999999 91.09 C 63.46999999999999 89.60000000000001 73.8 87.69 83.75999999999999 85.43 C 83.75999999999999 107.48 83.69999999999999 170.29000000000002 83.69999999999999 170.29000000000002 L 83.69999999999999 291.73 C 83.69999999999999 291.73 83.63999999999999 291.64000000000004 83.61999999999999 291.6 C 83.19999999999999 290.91 82.78999999999999 290.22 82.38 289.53000000000003 C 81.89 288.72 81.41 287.90000000000003 80.92999999999999 287.09000000000003 C 80.66 286.62 80.38999999999999 286.15000000000003 80.13 285.69000000000005 C 79.53999999999999 284.64000000000004 78.92999999999999 283.59000000000003 78.36 282.53000000000003 C 78.29 282.41 78.23 282.29 78.17 282.17 C 62.910000000000004 254 55.25 224 50.97 195.71000000000004 C 50.949999999999996 195.60000000000002 50.93 195.49000000000004 50.91 195.38000000000002 Z" stroke-linecap="round" />
</g>
<g transform="matrix(2.59 0 0 2.59 705.26 373.86)"  >
<path style="stroke: none; stroke-width: 1; stroke-dasharray: none; stroke-linecap: butt; stroke-dashoffset: 0; stroke-linejoin: miter; stroke-miterlimit: 4; fill: rgb(0,0,0); fill-rule: evenodd; opacity: 1;" vector-effect="non-scaling-stroke"  transform=" translate(-233.64, -147.09)" d="M 233.89 120.12 C 229.91 122.92 231.45999999999998 129.77 231.97 129.84 C 232.48 129.91 235.34 158.81 232.18 174.05 C 236.45000000000002 169.12 237.4 126.45000000000002 233.88 120.12 Z" stroke-linecap="round" />
</g>
<g transform="matrix(2.59 0 0 2.59 556.13 370.08)"  >
<path style="stroke: none; stroke-width: 1; stroke-dasharray: none; stroke-linecap: butt; stroke-dashoffset: 0; stroke-linejoin: miter; stroke-miterlimit: 4; fill: rgb(0,0,0); fill-rule: evenodd; opacity: 1;" vector-effect="non-scaling-stroke"  transform=" translate(-176.03, -145.63)" d="M 161.47 157.15 C 161.73 157.15 162 157.23000000000002 162.15 157.14000000000001 C 171.5 151.23000000000002 180.49 144.79000000000002 189.39000000000001 138.22000000000003 C 190.58 137.34000000000003 191.12 136.16000000000003 190.63000000000002 134.07000000000002 C 181.13000000000002 140.63000000000002 171.95000000000002 146.97000000000003 162.78000000000003 153.3 C 161.39000000000004 154.26000000000002 160.93000000000004 155.52 161.47000000000003 157.15 Z" stroke-linecap="round" />
</g>
<g transform="matrix(2.59 0 0 2.59 485.67 224.98)"  >
<path style="stroke: none; stroke-width: 1; stroke-dasharray: none; stroke-linecap: butt; stroke-dashoffset: 0; stroke-linejoin: miter; stroke-miterlimit: 4; fill: rgb(0,0,0); fill-rule: evenodd; opacity: 1;" vector-effect="non-scaling-stroke"  transform=" translate(-148.81, -89.57)" d="M 136.02 100.59 C 144.93 94.74000000000001 153.66000000000003 88.62 162.23000000000002 82.27000000000001 C 163.64000000000001 81.22000000000001 164.72000000000003 80.06000000000002 163.9 77.66000000000001 C 154.20000000000002 84.35000000000001 134.4 98.15 134.14000000000001 98.64000000000001 C 133.71 99.44000000000001 132.95000000000002 100.43000000000002 133.84 101.22000000000001 C 134.62 101.92000000000002 135.38 100.99000000000001 136.02 100.58000000000001 Z" stroke-linecap="round" />
</g>
<g transform="matrix(2.59 0 0 2.59 470.98 339.69)"  >
<path style="stroke: none; stroke-width: 1; stroke-dasharray: none; stroke-linecap: butt; stroke-dashoffset: 0; stroke-linejoin: miter; stroke-miterlimit: 4; fill: rgb(0,0,0); fill-rule: evenodd; opacity: 1;" vector-effect="non-scaling-stroke"  transform=" translate(-143.13, -133.89)" d="M 139.31 139.16 C 141.69 134.07999999999998 149.45 135.89 150.02 129.22 C 148.24 129.69 146.61 129.45 144.93 129 C 139.62 127.56 136.41 130.19 136.25 136.01 C 137.82 135.1 138.64 132.23999999999998 141.37 134.16 C 140.9 134.84 140.45000000000002 135.45 140.05 136.09 C 139.65 136.72 138.95000000000002 137.24 139.31 139.16 Z" stroke-linecap="round" />
</g>
<g transform="matrix(2.59 0 0 2.59 557.48 222.3)"  >
<path style="stroke: none; stroke-width: 1; stroke-dasharray: none; stroke-linecap: butt; stroke-dashoffset: 0; stroke-linejoin: miter; stroke-miterlimit: 4; fill: rgb(0,0,0); fill-rule: evenodd; opacity: 1;" vector-effect="non-scaling-stroke"  transform=" translate(-176.56, -88.53)" d="M 176.52 88.56 C 176.52 88.56 176.55 88.55 176.57000000000002 88.54 C 176.57000000000002 88.53 176.57000000000002 88.51 176.59000000000003 88.5 L 176.53000000000003 88.56 Z" stroke-linecap="round" />
</g>
<g transform="matrix(2.59 0 0 2.59 489.84 252.75)"  >
<path style="stroke: none; stroke-width: 1; stroke-dasharray: none; stroke-linecap: butt; stroke-dashoffset: 0; stroke-linejoin: miter; stroke-miterlimit: 4; fill: rgb(0,0,0); fill-rule: evenodd; opacity: 1;" vector-effect="non-scaling-stroke"  transform=" translate(-150.42, -100.3)" d="M 152.83 94.9 C 152.83 94.9 151.76000000000002 95.31 151.16000000000003 95.71000000000001 C 149.05 97.54 147.47000000000003 99.67 147.49000000000004 102.63000000000001 C 147.51000000000005 104.2 148.11000000000004 105.34 149.83000000000004 105.65 C 151.95000000000005 106.07000000000001 152.80000000000004 103.72 152.80000000000004 103.72 C 152.80000000000004 103.72 153.74000000000004 101.46 153.17000000000004 100.11 C 151.96000000000004 100.64 151.85000000000005 102.92 150.12000000000003 101.7 C 147.97000000000003 99.12 152.83000000000004 94.89 152.83000000000004 94.89 Z" stroke-linecap="round" />
</g>
<g transform="matrix(2.59 0 0 2.59 530.07 370.84)"  >
<path style="stroke: none; stroke-width: 1; stroke-dasharray: none; stroke-linecap: butt; stroke-dashoffset: 0; stroke-linejoin: miter; stroke-miterlimit: 4; fill: rgb(0,0,0); fill-rule: evenodd; opacity: 1;" vector-effect="non-scaling-stroke"  transform=" translate(-165.96, -145.92)" d="M 217.67 152.43 C 212.67 151.27 207.81 149.75 203.32 146.74 Q 208.01999999999998 144.28 212.79 144.88 C 220.85 145.9 224.5 142.57 224.23999999999998 134.43 C 224.2 133.39000000000001 223.26 127.14 224.61999999999998 125.08000000000001 C 225.55999999999997 123.66000000000001 222.95999999999998 118.51000000000002 221.33999999999997 118.23000000000002 C 221.02999999999997 118.17000000000002 220.48999999999998 118.37000000000002 220.36999999999998 118.62000000000002 C 219.51999999999998 120.31000000000002 217.75999999999996 121.87000000000002 218.52999999999997 123.91000000000003 C 219.78999999999996 127.23000000000002 220.03999999999996 130.71000000000004 220.59999999999997 134.14000000000001 C 220.87999999999997 135.84 222.05999999999997 138.04000000000002 220.38999999999996 139.18 C 218.33999999999995 140.59 215.72999999999996 141.43 213.21999999999997 139.77 C 214.25999999999996 137.72 215.49999999999997 135.86 216.18999999999997 133.81 C 217.25999999999996 130.63 214.77999999999997 129.17000000000002 212.65999999999997 127.64 C 211.49999999999997 126.81 210.45999999999998 126.43 209.29999999999995 127.74 C 206.69999999999996 130.68 204.70999999999995 134.18 205.66999999999996 137.95 C 206.43999999999997 140.98 205.15999999999997 141.44 203.10999999999996 142.29999999999998 C 199.85999999999996 143.67 196.06999999999996 144.24999999999997 194.43999999999997 148.18999999999997 C 193.76999999999998 149.81999999999996 193.57999999999996 150.59999999999997 195.61999999999998 151.18999999999997 C 200.64 152.65999999999997 205.58999999999997 154.36999999999998 210.58999999999997 155.98999999999998 C 209.81999999999996 157.52999999999997 182.28999999999996 165.01999999999998 169.06999999999996 164.10999999999999 C 156.30999999999997 163.23 146.10999999999996 156.54999999999998 146.15999999999997 142.42999999999998 C 146.15999999999997 141.81999999999996 146.51999999999998 141.01999999999998 145.81999999999996 140.67999999999998 C 145.02999999999997 140.29 144.37999999999997 140.83999999999997 143.75999999999996 141.35999999999999 C 142.15999999999997 142.69 142.12999999999997 144.82999999999998 141.00999999999996 146.42999999999998 C 138.97999999999996 149.31999999999996 137.59999999999997 149.45 135.22999999999996 146.82999999999998 C 134.74999999999997 146.29999999999998 134.62999999999997 145.35999999999999 133.39999999999995 145.30999999999997 C 132.86999999999995 147.43999999999997 131.86999999999995 149.33999999999997 133.15999999999994 151.77999999999997 C 135.43999999999994 156.08999999999997 134.72999999999993 158.27999999999997 130.60999999999993 160.84999999999997 C 124.62999999999992 164.57999999999996 118.00999999999993 166.78999999999996 111.30999999999993 168.76999999999995 C 107.40999999999993 169.91999999999996 103.44999999999993 170.87999999999997 99.49999999999993 171.92999999999995 C 101.21999999999993 172.65999999999994 102.84999999999992 172.66999999999996 104.43999999999993 172.99999999999994 C 114.79999999999993 175.19999999999993 123.46999999999993 171.22999999999993 131.7199999999999 165.64999999999995 C 133.7199999999999 164.28999999999994 135.27999999999992 162.30999999999995 135.7199999999999 160.06999999999994 C 136.61999999999992 155.48999999999992 139.5699999999999 152.45999999999992 142.83999999999992 149.28999999999994 C 145.86999999999992 162.93999999999994 155.42999999999992 167.89999999999992 168.24999999999991 168.97999999999993 C 177.61999999999992 169.76999999999992 186.54999999999993 167.80999999999995 195.4199999999999 165.35999999999993 C 205.6399999999999 162.52999999999992 215.7099999999999 158.78999999999994 226.5199999999999 159.70999999999992 C 230.0099999999999 160.00999999999993 231.5499999999999 158.79999999999993 232.4299999999999 155.73999999999992 C 227.5099999999999 154.64999999999992 222.5799999999999 153.58999999999992 217.6799999999999 152.44999999999993 Z M 209.73 132.73000000000002 C 211.42 132.91000000000003 212.04999999999998 134.54000000000002 212.84 135.77 C 212.78 137.25 211.70000000000002 138.21 210.72 138.11 C 209.17 137.95000000000002 208.73 136.32000000000002 208.6 134.95000000000002 C 208.51999999999998 134.10000000000002 208.03 132.55 209.73 132.73000000000002 Z" stroke-linecap="round" />
</g>
<g transform="matrix(2.59 0 0 2.59 502.99 361.92)"  >
<path style="stroke: none; stroke-width: 1; stroke-dasharray: none; stroke-linecap: butt; stroke-dashoffset: 0; stroke-linejoin: miter; stroke-miterlimit: 4; fill: rgb(0,0,0); fill-rule: evenodd; opacity: 1;" vector-effect="non-scaling-stroke"  transform=" translate(-155.5, -142.48)" d="M 157.91 137.08 C 157.91 137.08 156.85 137.49 156.24 137.89000000000001 C 154.13 139.73000000000002 152.55 141.86 152.57000000000002 144.81 C 152.57000000000002 146.38 153.19000000000003 147.53 154.91000000000003 147.83 C 157.03000000000003 148.25 157.87000000000003 145.9 157.87000000000003 145.9 C 157.87000000000003 145.9 158.82000000000002 143.64000000000001 158.25000000000003 142.29 C 157.04000000000002 142.82 156.93000000000004 145.1 155.20000000000002 143.88 C 153.05 141.29999999999998 157.91000000000003 137.07 157.91000000000003 137.07 Z" stroke-linecap="round" />
</g>
<g transform="matrix(2.59 0 0 2.59 406.17 241.28)"  >
<polygon style="stroke: none; stroke-width: 1; stroke-dasharray: none; stroke-linecap: butt; stroke-dashoffset: 0; stroke-linejoin: miter; stroke-miterlimit: 4; fill: rgb(0,0,0); fill-rule: evenodd; opacity: 1;" vector-effect="non-scaling-stroke"  points="0.03,0.12 4.7,3.66 6.8,-0.92 2.09,-4.45 -0.03,-0.26 -4.56,-3.67 -6.8,0.78 -1.95,4.44 0.03,0.12 " />
</g>
<g transform="matrix(2.59 0 0 2.59 414 328.74)"  >
<polygon style="stroke: none; stroke-width: 1; stroke-dasharray: none; stroke-linecap: butt; stroke-dashoffset: 0; stroke-linejoin: miter; stroke-miterlimit: 4; fill: rgb(0,0,0); fill-rule: evenodd; opacity: 1;" vector-effect="non-scaling-stroke"  points="0.03,0.13 4.7,3.66 6.79,-0.91 2.08,-4.45 -0.02,-0.25 -4.57,-3.67 -6.79,0.78 -1.95,4.44 0.03,0.13 " />
</g>
<g transform="matrix(2.59 0 0 2.59 470.97 424.21)"  >
<polygon style="stroke: none; stroke-width: 1; stroke-dasharray: none; stroke-linecap: butt; stroke-dashoffset: 0; stroke-linejoin: miter; stroke-miterlimit: 4; fill: rgb(0,0,0); fill-rule: evenodd; opacity: 1;" vector-effect="non-scaling-stroke"  points="-0.02,-0.25 -4.57,-3.66 -6.79,0.79 -1.95,4.45 0.02,0.13 4.7,3.67 6.79,-0.91 2.08,-4.45 -0.02,-0.25 " />
</g>
<g transform="matrix(2.59 0 0 2.59 631.11 433.16)"  >
<polygon style="stroke: none; stroke-width: 1; stroke-dasharray: none; stroke-linecap: butt; stroke-dashoffset: 0; stroke-linejoin: miter; stroke-miterlimit: 4; fill: rgb(0,0,0); fill-rule: evenodd; opacity: 1;" vector-effect="non-scaling-stroke"  points="-3.47,0.38 1.38,4.06 3.47,-0.53 -1.24,-4.06 -3.47,0.38 " />
</g>
<g transform="matrix(2.59 0 0 2.59 625.62 317.92)"  >
<polygon style="stroke: none; stroke-width: 1; stroke-dasharray: none; stroke-linecap: butt; stroke-dashoffset: 0; stroke-linejoin: miter; stroke-miterlimit: 4; fill: rgb(0,0,0); fill-rule: evenodd; opacity: 1;" vector-effect="non-scaling-stroke"  points="-3.47,0.39 1.37,4.06 3.47,-0.52 -1.24,-4.05 -3.47,0.39 " />
</g>
<g transform="matrix(2.59 0 0 2.59 531.44 223.19)"  >
<path style="stroke: none; stroke-width: 1; stroke-dasharray: none; stroke-linecap: butt; stroke-dashoffset: 0; stroke-linejoin: miter; stroke-miterlimit: 4; fill: rgb(0,0,0); fill-rule: evenodd; opacity: 1;" vector-effect="non-scaling-stroke"  transform=" translate(-166.49, -88.88)" d="M 157.91 96.89 C 159.98 97.47 161.45 96.78 162.93 96.04 C 165.82 94.59 168.05 92.32000000000001 170.35 90.12 C 171.18 89.33 171.54999999999998 87.48 173.48 88.60000000000001 C 174 88.9 174.85 87.83000000000001 174.56 87.33000000000001 C 173.53 85.56000000000002 174.77 84.16000000000001 175.02 82.59000000000002 C 175.12 81.96000000000002 175.18 81.24000000000002 174.46 80.84000000000002 C 173.79000000000002 80.47000000000001 173.19 80.70000000000002 172.65 81.12000000000002 C 171.07 82.35000000000002 169.99 83.96000000000002 170.56 85.95000000000002 C 170.92000000000002 87.22000000000001 170.47 87.79000000000002 169.73 88.54000000000002 C 166.36999999999998 91.94000000000003 162.29 94.35000000000002 157.92 96.87000000000002 Z M 173.26999999999998 82.5 C 173.26999999999998 82.5 174.67 83.68 172.08999999999997 84.56 C 172.08999999999997 84.56 171.48999999999998 83.39 173.26999999999998 82.5 Z" stroke-linecap="round" />
</g>
<g transform="matrix(2.59 0 0 2.59 674.34 223.23)"  >
<path style="stroke: none; stroke-width: 1; stroke-dasharray: none; stroke-linecap: butt; stroke-dashoffset: 0; stroke-linejoin: miter; stroke-miterlimit: 4; fill: rgb(0,0,0); fill-rule: evenodd; opacity: 1;" vector-effect="non-scaling-stroke"  transform=" translate(-221.7, -88.89)" d="M 209.88 99.92 C 212.72 100.72 214.76 99.77 216.79 98.75 C 220.78 96.75 223.85 93.63 227.01999999999998 90.59 C 228.15999999999997 89.5 228.65999999999997 86.95 231.32999999999998 88.5 C 232.04 88.91 233.23 87.45 232.82 86.75 C 231.4 84.31 233.13 82.37 233.45999999999998 80.22 C 233.58999999999997 79.35 233.67 78.36 232.67999999999998 77.81 C 231.74999999999997 77.3 230.92 77.62 230.17999999999998 78.2 C 227.99999999999997 79.9 226.51 82.11 227.29999999999998 84.87 C 227.79999999999998 86.61 227.17 87.41000000000001 226.14999999999998 88.45 C 221.51 93.14 215.86999999999998 96.47 209.86999999999998 99.93 Z M 231.4 79.7 C 231.4 79.7 233.31 81.3 229.8 82.5 C 229.8 82.5 229.01000000000002 80.91 231.4 79.7 Z" stroke-linecap="round" />
</g>
<g transform="matrix(2.59 0 0 2.59 540.65 261.95)"  >
<path style="stroke: none; stroke-width: 1; stroke-dasharray: none; stroke-linecap: butt; stroke-dashoffset: 0; stroke-linejoin: miter; stroke-miterlimit: 4; fill: rgb(0,0,0); fill-rule: evenodd; opacity: 1;" vector-effect="non-scaling-stroke"  transform=" translate(-170.05, -103.85)" d="M 208.69 102.28 C 204.3 100.42 199.47 102.53 197.64 106.67 C 197.11999999999998 107.86 201.1 110.55 203.98999999999998 107.82000000000001 C 204.85999999999999 106.93 205.85 107.05000000000001 206.85999999999999 107.46000000000001 C 209.45 108.51 212.02999999999997 109.57000000000001 214.92 110.76 C 212.29 111.72 209.97 112.5 207.7 113.41000000000001 C 204.23 114.80000000000001 201.32 113.96000000000001 198.94 111.24000000000001 C 193.51 105.03000000000002 189.29 97.84 182.96 92.14000000000001 C 192.09 87.63000000000001 200.85000000000002 83.54000000000002 209.83 79.94000000000001 C 212.21 78.99000000000001 214.74 78.31000000000002 217.24 77.69000000000001 C 218.47 77.38000000000001 220.03 77.21000000000001 220.78 78.55000000000001 C 221.49 79.81000000000002 220.21 80.69000000000001 219.5 81.50000000000001 C 217.52 83.73000000000002 212.59 89.16000000000001 212.2 89.72000000000001 C 213.31 90.16000000000001 222.04999999999998 82.97000000000001 223.6 78.00000000000001 C 224.71 74.45000000000002 223.68 72.76000000000002 220 72.55000000000001 C 217.27 72.39000000000001 214.65 73.09000000000002 212.1 74.09000000000002 C 201.1 78.40000000000002 183.24 85.86000000000001 176.57 88.54000000000002 C 174.82 92.78000000000002 176.85 95.18000000000002 180.23 97.69000000000003 C 184.57999999999998 100.91000000000003 188.37 104.91000000000003 190.62 110.02000000000002 C 191.13 111.18000000000002 192.46 112.69000000000003 190.38 113.49000000000002 C 188.88 114.06000000000002 187.1 115.35000000000002 185.73 112.86000000000003 C 184.57999999999998 110.79000000000003 182.64999999999998 109.48000000000003 180.44 108.50000000000003 C 178.82 107.79000000000003 177.49 108.13000000000002 176.7 109.41000000000003 C 174.98 112.26000000000002 173.95 115.66000000000003 175.35999999999999 118.64000000000003 C 176.57 121.19000000000003 182.72 120.24000000000002 183.95 120.09000000000003 L 183.60999999999999 120.45000000000003 C 183.60999999999999 120.45000000000003 183.58999999999997 120.46000000000004 183.57999999999998 120.47000000000003 C 178.76999999999998 126.12000000000003 172.48999999999998 129.13000000000002 165.32999999999998 130.37000000000003 C 163.21999999999997 130.74000000000004 161.17 129.61000000000004 160.35999999999999 127.41000000000004 C 159.57 125.24000000000004 161.41 118.26000000000003 164.05999999999997 116.08000000000004 C 166.30999999999997 116.80000000000004 167.78999999999996 114.80000000000004 167.78999999999996 114.80000000000004 L 167.78999999999996 114.80000000000004 C 167.86999999999998 114.71000000000004 167.94999999999996 114.62000000000003 168.00999999999996 114.55000000000004 C 170.20999999999995 111.75000000000004 170.56999999999996 106.89000000000004 168.84999999999997 103.86000000000004 C 166.82999999999996 100.30000000000004 162.99999999999997 99.84000000000005 160.68999999999997 103.06000000000004 C 159.31999999999996 104.97000000000004 157.90999999999997 106.73000000000005 156.27999999999997 108.46000000000005 C 147.94999999999996 117.29000000000005 138.15999999999997 117.29000000000005 129.77999999999997 108.05000000000005 C 125.82999999999997 103.69000000000005 121.84999999999997 103.74000000000005 118.16999999999997 108.34000000000006 C 117.05999999999997 109.74000000000007 116.35999999999997 111.46000000000006 115.33999999999997 112.95000000000006 C 114.37999999999998 114.37000000000006 113.96999999999997 116.85000000000007 111.72999999999998 116.47000000000006 C 109.45999999999998 116.08000000000006 108.78999999999998 113.72000000000006 108.22999999999998 111.75000000000006 C 107.80999999999997 110.27000000000005 108.14999999999998 108.71000000000005 108.46999999999997 107.15000000000006 C 108.76999999999997 105.70000000000006 109.97999999999998 104.38000000000007 109.29999999999997 102.71000000000006 C 105.53999999999996 107.37000000000006 104.79999999999997 114.69000000000007 107.61999999999996 118.96000000000006 C 109.87999999999997 122.39000000000007 112.71999999999996 122.53000000000006 114.95999999999997 119.22000000000007 C 116.03999999999996 117.62000000000008 116.88999999999997 115.86000000000007 117.88999999999997 114.20000000000007 C 121.48999999999997 108.26000000000008 123.35999999999997 108.09000000000007 127.97999999999998 113.27000000000007 C 134.37999999999997 120.45000000000007 144.27999999999997 121.73000000000008 152.17999999999998 116.37000000000006 C 153.46999999999997 115.50000000000006 154.76 114.59000000000006 155.86999999999998 113.52000000000007 C 157.75999999999996 111.70000000000007 159.26999999999998 113.22000000000007 160.74999999999997 114.02000000000007 C 162.80999999999997 115.14000000000007 156.88999999999996 124.29000000000006 157.12999999999997 128.47000000000006 C 157.34999999999997 132.33000000000007 159.72999999999996 134.85000000000005 163.36999999999998 135.14000000000004 C 170.83999999999997 135.74000000000004 183.86999999999998 127.49000000000004 186.65999999999997 120.28000000000004 C 187.00999999999996 119.40000000000005 187.36999999999998 118.96000000000005 188.23999999999998 118.94000000000004 C 192.67 118.87000000000005 195.11999999999998 116.84000000000005 194.48 111.37000000000003 C 195.79999999999998 112.82000000000004 196.5 113.55000000000004 197.17 114.32000000000004 C 201.85999999999999 119.72000000000004 202.75 119.88000000000004 209.39 116.93000000000004 C 215.19 114.35000000000004 221.33999999999997 113.55000000000004 227.60999999999999 114.16000000000004 C 231.11999999999998 114.50000000000004 233.29 113.44000000000004 234.19 109.70000000000005 C 225.28 108.54000000000005 216.9 105.74000000000005 208.69 102.27000000000004 Z M 177.32999999999998 114.3 C 177.95999999999998 113.72 178.51999999999998 113.34 179.01999999999998 113.11 C 179.35999999999999 112.96 179.67 112.88 179.95999999999998 112.85 C 180.09999999999997 112.83999999999999 180.23999999999998 112.85 180.37999999999997 112.85 C 180.64999999999998 112.88 180.89999999999998 112.97 181.15999999999997 113.1 C 181.39999999999998 113.22999999999999 181.63999999999996 113.39999999999999 181.86999999999998 113.61 C 181.98 113.71 182.09999999999997 113.82 182.20999999999998 113.94 C 182.42999999999998 114.17 182.65999999999997 114.42999999999999 182.87999999999997 114.71 C 183.21999999999997 115.11999999999999 183.55999999999997 115.57 183.92999999999998 116.00999999999999 C 181.29999999999998 116.05999999999999 179.59999999999997 115.10999999999999 177.33999999999997 114.28999999999999 Z M 160.45 107.50999999999999 C 161.07999999999998 106.92999999999999 161.64 106.55 162.14 106.32 C 162.48 106.16999999999999 162.79 106.08999999999999 163.07999999999998 106.05999999999999 C 163.21999999999997 106.04999999999998 163.35999999999999 106.05999999999999 163.49999999999997 106.05999999999999 C 163.76999999999998 106.08999999999999 164.02999999999997 106.17999999999999 164.27999999999997 106.30999999999999 C 164.51999999999998 106.43999999999998 164.75999999999996 106.60999999999999 164.98999999999998 106.82 C 165.1 106.91999999999999 165.20999999999998 107.02999999999999 165.32999999999998 107.14999999999999 C 165.54999999999998 107.38 165.77999999999997 107.63999999999999 165.99999999999997 107.91999999999999 C 166.33999999999997 108.32999999999998 166.67999999999998 108.77999999999999 167.04999999999998 109.21999999999998 C 164.42999999999998 109.26999999999998 162.71999999999997 108.31999999999998 160.45999999999998 107.49999999999999 Z" stroke-linecap="round" />
</g>
<g transform="matrix(2.59 0 0 2.59 416.71 375.89)"  >
<path style="stroke: none; stroke-width: 1; stroke-dasharray: none; stroke-linecap: butt; stroke-dashoffset: 0; stroke-linejoin: miter; stroke-miterlimit: 4; fill: rgb(0,0,0); fill-rule: evenodd; opacity: 1;" vector-effect="non-scaling-stroke"  transform=" translate(-122.16, -147.88)" d="M 123.81 148.54 C 121.5 147.23 121.99000000000001 146.54 123.47 145.01 C 127.05 141.29999999999998 130.43 137.41 134.14 133.34 C 132.29999999999998 132.61 131.75 133.44 131.10999999999999 134.04 C 127.71999999999998 137.25 124.16999999999999 140.32 121.02999999999999 143.76 C 119.24999999999999 145.70999999999998 118.39999999999999 145.01 117.39999999999999 143.37 C 117.00999999999999 142.72 116.99 141.84 116.58 141.21 C 115.52 139.6 113.64 139.14000000000001 112.00999999999999 138.55 C 111.02999999999999 138.20000000000002 110.82999999999998 139.76000000000002 110.55 140.51000000000002 C 109.94 142.15 109.96 143.57000000000002 111.73 144.88000000000002 C 112.29 145.3 112.8 145.73000000000002 113.26 146.18000000000004 L 113.28 146.18000000000004 C 113.41 146.33000000000004 113.54 146.46000000000004 113.67 146.60000000000002 L 117 150.02 L 113.72 155.4 C 112.65 157.55 112.53 160.11 115.25 161.8 C 118.54 163.85000000000002 124.07 162.20000000000002 126.16 158.69 C 128.69 154.44 128.06 150.96 123.81 148.54 Z M 119.33 158.17 C 118.19 158.30999999999997 116.92 158.23 116.49 156.89999999999998 C 116.17 155.92 116.44 155.02999999999997 116.89999999999999 154.23 L 116.89999999999999 154.23 C 116.89999999999999 154.23 118.99999999999999 147.81 124.52 156.84 C 122.03 158.22 121.03 157.95000000000002 119.33 158.17000000000002 Z" stroke-linecap="round" />
</g>
</svg>