<svg width="496" height="496" viewBox="0 0 496 496" fill="none" xmlns="http://www.w3.org/2000/svg">
<path d="M472 448H464V416H448V272H456C469.232 272 480 261.232 480 248C480 234.768 469.232 224 456 224H399.584C398.704 206.952 395.056 190.424 388.624 174.688L400 163.312L408 171.312L448 131.312L452.688 136H456C473.648 136 488 121.648 488 104V100.688L411.312 24H408C390.352 24 376 38.352 376 56V59.312L380.688 64L340.688 104L348.688 112L336 124.688L331.312 120C321 109.68 303 109.68 292.688 120L288 124.688V0H208V19.744C109.344 38.288 35.264 124.912 32.152 225.424C22.784 228.696 16 237.528 16 248C16 261.232 26.768 272 40 272H48V416H32V448H24C10.768 448 0 458.768 0 472V496H496V472C496 458.768 485.232 448 472 448ZM383.584 224H339.312L376.272 187.04C380.448 198.944 382.856 211.312 383.584 224ZM287.192 224C283.472 205.768 267.32 192 248 192C228.68 192 212.528 205.768 208.808 224H192.64C196.544 196.904 219.848 176 248 176C276.152 176 299.456 196.904 303.36 224H287.192ZM270.528 224H225.48C228.792 214.712 237.592 208 248.008 208C258.424 208 267.216 214.712 270.528 224ZM48.368 224C50.048 182.944 64.4 144.496 87.936 112.928L187.384 193.304C181.576 202.368 177.72 212.792 176.472 224.008L48.368 224ZM404.976 40.288L471.712 107.024C470.488 113.424 465.424 118.48 459.032 119.704L392.296 52.968C393.512 46.576 398.576 41.512 404.976 40.288ZM392 75.312L436.688 120L408 148.688L363.312 104L392 75.312ZM388.688 152L319.152 221.536C316.976 206.688 310.28 193.312 300.464 182.848L360 123.312L388.688 152ZM304 131.312C308.208 127.104 315.792 127.104 320 131.312L324.688 136L288.312 172.376C288.208 172.304 288.104 172.24 288 172.176V147.312L304 131.312ZM272 16V164.2C264.48 161.528 256.424 160 248 160C239.576 160 231.52 161.528 224 164.2V16H272ZM208 36.216V172.176C204.2 174.728 200.664 177.632 197.416 180.832L97.96 100.456C126.12 68.296 164.392 45.12 208 36.216ZM32 248C32 243.592 35.592 240 40 240H456C460.408 240 464 243.592 464 248C464 252.408 460.408 256 456 256H40C35.592 256 32 252.408 32 248ZM64 272H432V416H288V344C288 321.944 270.056 304 248 304C225.944 304 208 321.944 208 344V416H64V272ZM272 416H224V344C224 330.768 234.768 320 248 320C261.232 320 272 330.768 272 344V416ZM48 432H448V448H48V432ZM480 480H16V472C16 467.584 19.592 464 24 464H472C476.408 464 480 467.584 480 472V480ZM256 64H240V48H256V64ZM256 96H240V80H256V96ZM256 128H240V112H256V128ZM416 304H304V384H416V304ZM400 368H320V320H400V368ZM80 304V384H192V304H80ZM176 368H96V320H176V368ZM179.28 78.656L172.72 64.064C178.152 61.624 183.784 59.416 189.456 57.52L194.544 72.688C189.368 74.416 184.232 76.424 179.28 78.656ZM132.696 109.816L121.712 98.184C132.104 88.368 143.64 79.776 156 72.624L164.008 86.472C152.72 93 142.184 100.848 132.696 109.816Z" fill="url(#paint0_linear_995_304)"/>
<defs>
<linearGradient id="paint0_linear_995_304" x1="248" y1="496" x2="248" y2="0" gradientUnits="userSpaceOnUse">
<stop stop-color="#9F2FFF"/>
<stop offset="1" stop-color="#0BB1D3"/>
</linearGradient>
</defs>
</svg>
